<svg width="34" height="34" viewBox="0 0 34 34" fill="none" xmlns="http://www.w3.org/2000/svg">
<path d="M22.6667 2.8335V5.66683M15.5833 2.8335V5.66683M8.5 2.8335V5.66683" stroke="black" stroke-width="1.5" stroke-linecap="round" stroke-linejoin="round"/>
<path d="M27.6248 14.1667C27.6248 9.49191 27.6248 7.15452 26.1726 5.70227C24.7202 4.25 22.3829 4.25 17.7082 4.25H13.4582C8.78341 4.25 6.44602 4.25 4.99377 5.70227C3.5415 7.15452 3.5415 9.49191 3.5415 14.1667V21.25C3.5415 25.9247 3.5415 28.2621 4.99377 29.7144C6.44602 31.1667 8.78341 31.1667 13.4582 31.1667H17.7082" stroke="black" stroke-width="1.5" stroke-linecap="round" stroke-linejoin="round"/>
<path d="M24.7917 19.8335V31.1668M30.4583 25.5002H19.125" stroke="black" stroke-width="1.5" stroke-linecap="round"/>
<path d="M9.9165 21.2498H15.5832M9.9165 14.1665H21.2498" stroke="black" stroke-width="1.5" stroke-linecap="round"/>
</svg>
