<svg width="35" height="35" viewBox="0 0 35 35" fill="none" xmlns="http://www.w3.org/2000/svg">
<rect width="35" height="35" rx="17.5" fill="#88B04F" fill-opacity="0.37"/>
<path d="M17.4167 13.3333H27.562C28.291 13.3333 28.6554 13.3333 28.9223 13.4509C30.1026 13.9713 29.5749 15.2825 29.3763 16.2247C29.3406 16.394 29.2245 16.5381 29.0619 16.6153C28.3872 16.9355 27.9146 17.5427 27.7906 18.2489L27.0992 22.1857C26.7951 23.9178 26.6911 26.3933 25.1732 27.6135C24.0595 28.4999 22.4548 28.4999 19.2455 28.4999H16.7546C13.5453 28.4999 11.9406 28.4999 10.8269 27.6135C9.30898 26.3932 9.20499 23.9178 8.90081 22.1857L8.20946 18.2489C8.08544 17.5427 7.6129 16.9355 6.93819 16.6153C6.7755 16.5381 6.65948 16.394 6.62381 16.2247C6.42524 15.2825 5.89751 13.9713 7.07785 13.4509C7.34469 13.3333 7.70913 13.3333 8.43801 13.3333H12.75" stroke="black" stroke-width="1.5" stroke-linecap="round"/>
<path d="M20.3333 18H15.6666" stroke="black" stroke-width="1.5" stroke-linecap="round" stroke-linejoin="round"/>
<path d="M11.5834 16.8333L15.6667 7.5M21.5 7.5L24.4167 13.3333" stroke="black" stroke-width="1.5" stroke-linecap="round"/>
</svg>
