<svg width="16" height="17" viewBox="0 0 16 17" fill="none" xmlns="http://www.w3.org/2000/svg">
<g clip-path="url(#clip0_669_824)">
<path d="M8.44776 14.5002H7.15557C5.43627 14.5002 4.57663 14.5002 3.98001 13.9936C3.16683 13.2963 3.11112 11.8818 2.94817 10.892L2.5778 8.64243C2.51136 8.2389 2.25821 7.8919 1.89676 7.70896C1.80961 7.66483 1.74746 7.5825 1.72834 7.48576C1.62197 6.94733 1.33926 6.1981 1.97158 5.90072C2.11453 5.8335 2.30977 5.8335 2.70024 5.8335H5.01026M7.51026 5.8335H12.9453C13.3358 5.8335 13.531 5.8335 13.6739 5.90072C14.3063 6.1981 14.0236 6.94733 13.9172 7.48576C13.8981 7.5825 13.8359 7.66483 13.7488 7.70896C13.5409 7.81416 13.3689 7.97363 13.2476 8.16683" stroke="#88B04F" stroke-width="1.5" stroke-linecap="round"/>
<path d="M9.69775 12.1668H14.0728M11.8853 14.5002V9.8335" stroke="#88B04F" stroke-width="1.5" stroke-linecap="round"/>
<path d="M4.38525 7.83333L6.57275 2.5M9.69775 2.5L11.2603 5.83333" stroke="#88B04F" stroke-width="1.5" stroke-linecap="round"/>
</g>
<defs>
<clipPath id="clip0_669_824">
<rect width="15" height="16" fill="white" transform="translate(0.322754 0.5)"/>
</clipPath>
</defs>
</svg>
