<svg width="34" height="34" viewBox="0 0 34 34" fill="none" xmlns="http://www.w3.org/2000/svg">
<path d="M16.2916 11.3333H28.611C29.4961 11.3333 29.9387 11.3333 30.2627 11.4761C31.6959 12.108 31.0552 13.7001 30.814 14.8443C30.7707 15.0499 30.6297 15.2248 30.4322 15.3186C29.613 15.7074 29.0391 16.4447 28.8885 17.3022L28.049 22.0826C27.6797 24.186 27.5534 27.1918 25.7102 28.6735C24.3579 29.7499 22.4094 29.7499 18.5123 29.7499H15.4877C11.5906 29.7499 9.6421 29.7499 8.28975 28.6735C6.44655 27.1917 6.32027 24.186 5.95092 22.0826L5.11142 17.3022C4.96082 16.4447 4.38702 15.7074 3.56773 15.3186C3.37018 15.2248 3.2293 15.0499 3.18598 14.8443C2.94486 13.7001 2.30405 12.108 3.73732 11.4761C4.06134 11.3333 4.50388 11.3333 5.38894 11.3333H10.625" stroke="black" stroke-width="1.5" stroke-linecap="round"/>
<path d="M19.8334 17H14.1667" stroke="black" stroke-width="1.5" stroke-linecap="round" stroke-linejoin="round"/>
<path d="M9.20831 15.5833L14.1666 4.25M21.25 4.25L24.7916 11.3333" stroke="black" stroke-width="1.5" stroke-linecap="round"/>
</svg>
