<svg width="19" height="19" viewBox="0 0 19 19" fill="none" xmlns="http://www.w3.org/2000/svg">
<path d="M16.0699 4.13037L15.5165 12.6893C15.375 14.8761 15.3044 15.9695 14.7311 16.7556C14.4476 17.1442 14.0827 17.4723 13.6594 17.7187C12.8033 18.2173 11.6575 18.2173 9.36572 18.2173C7.07102 18.2173 5.92365 18.2173 5.06701 17.7178C4.6435 17.4709 4.27843 17.1423 3.99506 16.753C3.42191 15.9656 3.35277 14.8707 3.21449 12.6809L2.67456 4.13037" stroke="#B63D3D" stroke-width="1.5" stroke-linecap="round"/>
<path d="M1 4.13043H17.7442M13.1448 4.13043L12.5099 2.87086C12.088 2.03417 11.877 1.61582 11.5132 1.35491C11.4326 1.29703 11.3471 1.24555 11.2577 1.20097C10.8548 1 10.3713 1 9.40419 1C8.41284 1 7.91721 1 7.50761 1.2094C7.41684 1.25581 7.33021 1.30938 7.24864 1.36954C6.8806 1.64102 6.67501 2.07468 6.26382 2.942L5.70039 4.13043" stroke="#B63D3D" stroke-width="1.5" stroke-linecap="round"/>
</svg>
