<svg width="40" height="40" viewBox="0 0 40 40" fill="none" xmlns="http://www.w3.org/2000/svg">
<path d="M30.0016 33.3335C27.2158 35.4265 23.7526 36.6668 19.9999 36.6668C10.7952 36.6668 3.33325 29.2048 3.33325 20.0002C3.33325 10.7954 10.7952 3.3335 19.9999 3.3335C29.2046 3.3335 36.6666 10.7954 36.6666 20.0002C36.6666 21.4392 36.4843 22.8353 36.1414 24.1673C35.7694 25.6123 34.1908 26.2835 32.7831 25.7882C31.5864 25.367 31.0368 23.9997 31.3366 22.7668C31.5523 21.88 31.6666 20.9535 31.6666 20.0002C31.6666 13.5568 26.4433 8.3335 19.9999 8.3335C13.5566 8.3335 8.33325 13.5568 8.33325 20.0002C8.33325 26.4435 13.5566 31.6668 19.9999 31.6668C22.1994 31.6668 24.2566 31.0582 26.0126 30.0002" stroke="#88B04F" stroke-width="1.5" stroke-linecap="round"/>
</svg>
