<svg width="223" height="208" viewBox="0 0 223 208" fill="none" xmlns="http://www.w3.org/2000/svg">
<path d="M78.2105 34.4656H56.6509V98.201H78.2105V34.4656Z" fill="#F5F5F5"/>
<path d="M78.2105 34.4656H67.4307V98.0263H78.2105V34.4656Z" fill="#EBEBEB"/>
<path d="M66.726 28.2048H59.1128V34.4615H66.726V28.2048Z" fill="#F5F5F5"/>
<path d="M66.7259 28.2048H64.9106V34.4615H66.7259V28.2048Z" fill="#EBEBEB"/>
<path d="M54.8535 34.4656V34.0995H78.8439V34.4656" fill="#E0E0E0"/>
<path d="M62.7299 37.1946H60.9058V40.7847H62.7299V37.1946Z" fill="#FAFAFA"/>
<path d="M67.4307 42.1908C67.4307 42.2282 65.0178 42.2615 62.0386 42.2615C59.0593 42.2615 56.6509 42.2282 56.6509 42.1908C56.6509 42.1533 59.0637 42.1242 62.0386 42.1242C65.0134 42.1242 67.4307 42.1533 67.4307 42.1908Z" fill="#E0E0E0"/>
<path d="M73.6032 37.1946H71.7791V40.7847H73.6032V37.1946Z" fill="#E0E0E0"/>
<path d="M78.304 42.1908C78.304 42.2282 75.8911 42.2615 72.9163 42.2615C69.9415 42.2615 67.5242 42.2282 67.5242 42.1908C67.5242 42.1533 69.937 42.1242 72.9163 42.1242C75.8956 42.1242 78.304 42.1533 78.304 42.1908Z" fill="#E0E0E0"/>
<path d="M73.6032 44.3207H71.7791V47.9108H73.6032V44.3207Z" fill="#E0E0E0"/>
<path d="M78.304 49.3168C78.304 49.3542 75.8911 49.3875 72.9163 49.3875C69.9415 49.3875 67.5242 49.3542 67.5242 49.3168C67.5242 49.2794 69.937 49.2502 72.9163 49.2502C75.8956 49.2502 78.304 49.2794 78.304 49.3168Z" fill="#E0E0E0"/>
<path d="M73.6032 51.6589H71.7791V55.249H73.6032V51.6589Z" fill="#E0E0E0"/>
<path d="M78.304 56.6592C78.304 56.6967 75.8911 56.7258 72.9163 56.7258C69.9415 56.7258 67.5242 56.6967 67.5242 56.6592C67.5242 56.6218 69.937 56.5927 72.9163 56.5927C75.8956 56.5927 78.304 56.6218 78.304 56.6592Z" fill="#E0E0E0"/>
<path d="M73.6032 59.0013H71.7791V62.5914H73.6032V59.0013Z" fill="#E0E0E0"/>
<path d="M78.304 64.0016C78.304 64.0391 75.8911 64.0682 72.9163 64.0682C69.9415 64.0682 67.5242 64.0391 67.5242 64.0016C67.5242 63.9642 69.937 63.9309 72.9163 63.9309C75.8956 63.9309 78.304 63.9642 78.304 64.0016Z" fill="#E0E0E0"/>
<path d="M73.6032 66.1357H71.7791V69.7258H73.6032V66.1357Z" fill="#E0E0E0"/>
<path d="M78.304 71.136C78.304 71.1735 75.8911 71.2067 72.9163 71.2067C69.9415 71.2067 67.5242 71.1735 67.5242 71.136C67.5242 71.0986 69.937 71.0695 72.9163 71.0695C75.8956 71.0695 78.304 71.0944 78.304 71.136Z" fill="#E0E0E0"/>
<path d="M73.6032 73.295H71.7791V76.8851H73.6032V73.295Z" fill="#E0E0E0"/>
<path d="M73.6032 80.5501H71.7791V84.1402H73.6032V80.5501Z" fill="#E0E0E0"/>
<path d="M78.304 78.2912C78.304 78.3287 75.8911 78.362 72.9163 78.362C69.9415 78.362 67.5242 78.3287 67.5242 78.2912C67.5242 78.2538 69.937 78.2247 72.9163 78.2247C75.8956 78.2247 78.304 78.2538 78.304 78.2912Z" fill="#E0E0E0"/>
<path d="M62.7299 44.4288H60.9058V48.0189H62.7299V44.4288Z" fill="#FAFAFA"/>
<path d="M67.4306 49.425C67.4306 49.4624 65.0177 49.4957 62.0384 49.4957C59.0592 49.4957 56.6418 49.4624 56.6418 49.425C56.6418 49.3875 59.0547 49.3584 62.0295 49.3584C65.0043 49.3584 67.4306 49.3875 67.4306 49.425Z" fill="#E0E0E0"/>
<path d="M62.7299 51.6631H60.9058V55.2532H62.7299V51.6631Z" fill="#FAFAFA"/>
<path d="M67.4306 56.6634C67.4306 56.7008 65.0177 56.7299 62.0384 56.7299C59.0592 56.7299 56.6418 56.7008 56.6418 56.6634C56.6418 56.6259 59.0547 56.5927 62.0295 56.5927C65.0043 56.5927 67.4306 56.6259 67.4306 56.6634Z" fill="#E0E0E0"/>
<path d="M62.7299 58.8973H60.9058V62.4874H62.7299V58.8973Z" fill="#FAFAFA"/>
<path d="M67.4306 63.8976C67.4306 63.9351 65.0177 63.9642 62.0384 63.9642C59.0592 63.9642 56.6418 63.9351 56.6418 63.8976C56.6418 63.8602 59.0547 63.8269 62.0295 63.8269C65.0043 63.8269 67.4306 63.8602 67.4306 63.8976Z" fill="#E0E0E0"/>
<path d="M62.7299 66.1357H60.9058V69.7258H62.7299V66.1357Z" fill="#FAFAFA"/>
<path d="M67.4306 71.136C67.4306 71.1735 65.0177 71.2067 62.0384 71.2067C59.0592 71.2067 56.6418 71.1693 56.6418 71.136C56.6418 71.1027 59.0547 71.0695 62.0295 71.0695C65.0043 71.0695 67.4306 71.0944 67.4306 71.136Z" fill="#E0E0E0"/>
<path d="M62.7299 73.3699H60.9058V76.96H62.7299V73.3699Z" fill="#FAFAFA"/>
<path d="M67.4307 78.3661C67.4307 78.4036 65.0178 78.4368 62.0386 78.4368C59.0593 78.4368 56.6509 78.4036 56.6509 78.3661C56.6509 78.3287 59.0637 78.2996 62.0386 78.2996C65.0134 78.2996 67.4307 78.3287 67.4307 78.3661Z" fill="#E0E0E0"/>
<path d="M62.7299 80.6042H60.9058V84.1943H62.7299V80.6042Z" fill="#FAFAFA"/>
<path d="M157.17 47.9773H135.611V111.713H157.17V47.9773Z" fill="#F5F5F5"/>
<path d="M157.175 47.9773H146.395V111.538H157.175V47.9773Z" fill="#EBEBEB"/>
<path d="M145.69 41.7206H138.077V47.9773H145.69V41.7206Z" fill="#F5F5F5"/>
<path d="M145.69 41.7206H143.875V47.9773H145.69V41.7206Z" fill="#EBEBEB"/>
<path d="M133.818 47.9773V47.6112H157.804V47.9773" fill="#E0E0E0"/>
<path d="M141.694 50.7063H139.87V54.2964H141.694V50.7063Z" fill="#FAFAFA"/>
<path d="M146.395 55.7066C146.395 55.744 143.982 55.7731 141.003 55.7731C138.023 55.7731 135.611 55.744 135.611 55.7066C135.611 55.6691 138.028 55.6359 141.003 55.6359C143.978 55.6359 146.395 55.6691 146.395 55.7066Z" fill="#E0E0E0"/>
<path d="M152.568 50.7063H150.743V54.2964H152.568V50.7063Z" fill="#E0E0E0"/>
<path d="M157.268 55.7066C157.268 55.744 154.855 55.7731 151.876 55.7731C148.897 55.7731 146.489 55.744 146.489 55.7066C146.489 55.6691 148.901 55.6359 151.876 55.6359C154.851 55.6359 157.268 55.6691 157.268 55.7066Z" fill="#E0E0E0"/>
<path d="M152.568 57.8323H150.743V61.4224H152.568V57.8323Z" fill="#E0E0E0"/>
<path d="M157.268 62.816C157.268 62.8535 154.855 62.8826 151.876 62.8826C148.897 62.8826 146.489 62.8535 146.489 62.816C146.489 62.7786 148.901 62.7453 151.876 62.7453C154.851 62.7453 157.268 62.816 157.268 62.816Z" fill="#E0E0E0"/>
<path d="M152.568 65.1747H150.743V68.7648H152.568V65.1747Z" fill="#E0E0E0"/>
<path d="M157.268 70.1751C157.268 70.2125 154.855 70.2417 151.876 70.2417C148.897 70.2417 146.489 70.2125 146.489 70.1751C146.489 70.1376 148.901 70.1044 151.876 70.1044C154.851 70.1044 157.268 70.1376 157.268 70.1751Z" fill="#E0E0E0"/>
<path d="M152.568 72.5172H150.743V76.1072H152.568V72.5172Z" fill="#E0E0E0"/>
<path d="M157.268 77.5133C157.268 77.5549 154.855 77.5841 151.876 77.5841C148.897 77.5841 146.489 77.5549 146.489 77.5133C146.489 77.4717 148.901 77.4468 151.876 77.4468C154.851 77.4468 157.268 77.4759 157.268 77.5133Z" fill="#E0E0E0"/>
<path d="M152.568 79.6474H150.743V83.2375H152.568V79.6474Z" fill="#E0E0E0"/>
<path d="M157.268 84.6477C157.268 84.6851 154.855 84.7142 151.876 84.7142C148.897 84.7142 146.489 84.6851 146.489 84.6477C146.489 84.6102 148.901 84.577 151.876 84.577C154.851 84.577 157.268 84.6102 157.268 84.6477Z" fill="#E0E0E0"/>
<path d="M152.568 86.8068H150.743V90.3968H152.568V86.8068Z" fill="#E0E0E0"/>
<path d="M152.568 94.0618H150.743V97.6518H152.568V94.0618Z" fill="#E0E0E0"/>
<path d="M157.268 91.807C157.268 91.8445 154.855 91.8736 151.876 91.8736C148.897 91.8736 146.489 91.8445 146.489 91.807C146.489 91.7696 148.901 91.7405 151.876 91.7405C154.851 91.7405 157.268 91.7696 157.268 91.807Z" fill="#E0E0E0"/>
<path d="M141.694 57.9405H139.87V61.5306H141.694V57.9405Z" fill="#FAFAFA"/>
<path d="M146.395 62.9408C146.395 62.9783 143.982 63.0074 141.003 63.0074C138.023 63.0074 135.611 62.9783 135.611 62.9408C135.611 62.9034 138.028 62.8743 141.003 62.8743C143.978 62.8743 146.395 62.9034 146.395 62.9408Z" fill="#E0E0E0"/>
<path d="M141.694 65.1789H139.87V68.769H141.694V65.1789Z" fill="#FAFAFA"/>
<path d="M146.395 70.1751C146.395 70.2125 143.982 70.2458 141.003 70.2458C138.023 70.2458 135.611 70.2125 135.611 70.1751C135.611 70.1376 138.028 70.1085 141.003 70.1085C143.978 70.1085 146.395 70.1376 146.395 70.1751Z" fill="#E0E0E0"/>
<path d="M141.694 72.4131H139.87V76.0032H141.694V72.4131Z" fill="#FAFAFA"/>
<path d="M146.395 77.4093C146.395 77.4509 143.982 77.4801 141.003 77.4801C138.023 77.4801 135.611 77.4509 135.611 77.4093C135.611 77.3677 138.028 77.3428 141.003 77.3428C143.978 77.3428 146.395 77.3761 146.395 77.4093Z" fill="#E0E0E0"/>
<path d="M141.694 79.6474H139.87V83.2375H141.694V79.6474Z" fill="#FAFAFA"/>
<path d="M146.395 84.6477C146.395 84.6851 143.982 84.7142 141.003 84.7142C138.023 84.7142 135.611 84.6851 135.611 84.6477C135.611 84.6102 138.028 84.577 141.003 84.577C143.978 84.577 146.395 84.6102 146.395 84.6477Z" fill="#E0E0E0"/>
<path d="M141.694 86.8858H139.87V90.4759H141.694V86.8858Z" fill="#FAFAFA"/>
<path d="M146.395 91.8819C146.395 91.9194 143.982 91.9485 141.003 91.9485C138.023 91.9485 135.611 91.9194 135.611 91.8819C135.611 91.8445 138.028 91.8154 141.003 91.8154C143.978 91.8154 146.395 91.8445 146.395 91.8819Z" fill="#E0E0E0"/>
<path d="M141.694 94.12H139.87V97.7101H141.694V94.12Z" fill="#FAFAFA"/>
<path d="M184.095 72.7085H149.182V115.656H184.095V72.7085Z" fill="#EBEBEB"/>
<path d="M184.091 72.7085H167.723V115.656H184.091V72.7085Z" fill="#E0E0E0"/>
<path d="M159.641 78.5242H156.501V85.6378H159.641V78.5242Z" fill="#F5F5F5"/>
<path d="M159.641 106.363H156.501V113.477H159.641V106.363Z" fill="#F5F5F5"/>
<path d="M167.723 88.4292C167.723 88.5082 163.575 88.5706 158.455 88.5706C153.335 88.5706 149.182 88.5082 149.182 88.4292C149.182 88.3501 153.33 88.2836 158.455 88.2836C163.579 88.2836 167.723 88.346 167.723 88.4292Z" fill="#F5F5F5"/>
<path d="M159.641 92.5475H156.501V99.6611H159.641V92.5475Z" fill="#F5F5F5"/>
<path d="M167.723 102.452C167.723 102.532 163.575 102.598 158.455 102.598C153.335 102.598 149.182 102.532 149.182 102.452C149.182 102.373 153.33 102.307 158.455 102.307C163.579 102.307 167.723 102.373 167.723 102.452Z" fill="#F5F5F5"/>
<path d="M174.341 78.5242H171.201V85.6378H174.341V78.5242Z" fill="#F5F5F5"/>
<path d="M181.152 78.5242H178.012V85.6378H181.152V78.5242Z" fill="#F5F5F5"/>
<path d="M174.341 92.0192H171.201V99.1328H174.341V92.0192Z" fill="#F5F5F5"/>
<path d="M181.152 92.0192H178.012V99.1328H181.152V92.0192Z" fill="#F5F5F5"/>
<path d="M174.341 105.518H171.201V112.632H174.341V105.518Z" fill="#F5F5F5"/>
<path d="M181.152 105.518H178.012V112.632H181.152V105.518Z" fill="#F5F5F5"/>
<path d="M186.718 71.2109H146.555V72.7584H186.718V71.2109Z" fill="#E0E0E0"/>
<path d="M184.336 72.9082C184.336 72.9872 176.536 73.0496 166.911 73.0496C157.286 73.0496 149.481 72.9872 149.481 72.9082C149.481 72.8291 157.286 72.7626 166.911 72.7626C176.536 72.7626 184.336 72.825 184.336 72.9082Z" fill="#EBEBEB"/>
<path d="M70.2136 116.513H38.4852L38.3469 69.7424H70.0754L70.2136 116.513Z" fill="#EBEBEB"/>
<path d="M70.0754 69.7424H54.2112V116.513H70.0754V69.7424Z" fill="#E0E0E0"/>
<path d="M53.172 60.5364H41.9685V69.7425H53.172V60.5364Z" fill="#EBEBEB"/>
<path d="M53.172 60.5364H50.5005V69.7425H53.172V60.5364Z" fill="#E0E0E0"/>
<path d="M71.003 69.2058H35.7021V69.7424H71.003V69.2058Z" fill="#E0E0E0"/>
<path d="M47.2938 73.761H44.6089V79.0442H47.2938V73.761Z" fill="white"/>
<path d="M54.2113 81.12C54.2113 81.1741 50.6433 81.2199 46.2769 81.2199C41.9106 81.2199 38.356 81.17 38.356 81.12C38.356 81.0701 41.924 81.0202 46.2858 81.0202C50.6477 81.0202 54.2113 81.0576 54.2113 81.12Z" fill="#E0E0E0"/>
<path d="M63.2963 73.761H60.6113V79.0442H63.2963V73.761Z" fill="#F5F5F5"/>
<path d="M70.2136 81.12C70.2136 81.1741 66.6456 81.2199 62.2792 81.2199C57.9129 81.2199 54.3494 81.1741 54.3494 81.12C54.3494 81.066 57.9174 81.0202 62.2792 81.0202C66.6411 81.0202 70.2136 81.0576 70.2136 81.12Z" fill="#EBEBEB"/>
<path d="M63.2963 84.2484H60.6113V89.5316H63.2963V84.2484Z" fill="#F5F5F5"/>
<path d="M70.2136 91.6032C70.2136 91.6573 66.6456 91.703 62.2792 91.703C57.9129 91.703 54.3494 91.6573 54.3494 91.6032C54.3494 91.5491 57.9174 91.4992 62.2792 91.4992C66.6411 91.4992 70.2136 91.545 70.2136 91.6032Z" fill="#EBEBEB"/>
<path d="M63.2963 95.0519H60.6113V100.335H63.2963V95.0519Z" fill="#F5F5F5"/>
<path d="M70.2136 102.407C70.2136 102.461 66.6456 102.507 62.2792 102.507C57.9129 102.507 54.3494 102.461 54.3494 102.407C54.3494 102.353 57.9174 102.303 62.2792 102.303C66.6411 102.303 70.2136 102.336 70.2136 102.407Z" fill="#EBEBEB"/>
<path d="M63.2963 105.851H60.6113V111.134H63.2963V105.851Z" fill="#F5F5F5"/>
<path d="M70.2136 113.21C70.2136 113.264 66.6456 113.31 62.2792 113.31C57.9129 113.31 54.3494 113.264 54.3494 113.21C54.3494 113.156 57.9174 113.106 62.2792 113.106C66.6411 113.106 70.2136 113.152 70.2136 113.21Z" fill="#EBEBEB"/>
<path d="M47.2938 84.4064H44.6089V89.6896H47.2938V84.4064Z" fill="white"/>
<path d="M54.2113 91.7613C54.2113 91.8196 50.6433 91.8612 46.2769 91.8612C41.9106 91.8612 38.356 91.8196 38.356 91.7613C38.356 91.7031 41.924 91.6615 46.2858 91.6615C50.6477 91.6615 54.2113 91.7073 54.2113 91.7613Z" fill="#E0E0E0"/>
<path d="M47.2938 95.0519H44.6089V100.335H47.2938V95.0519Z" fill="white"/>
<path d="M54.2113 102.407C54.2113 102.465 50.6433 102.511 46.2769 102.511C41.9106 102.511 38.356 102.465 38.356 102.407C38.356 102.348 41.924 102.307 46.2858 102.307C50.6477 102.307 54.2113 102.336 54.2113 102.407Z" fill="#E0E0E0"/>
<path d="M47.2938 105.701H44.6089V110.985H47.2938V105.701Z" fill="white"/>
<path d="M54.2113 113.056C54.2113 113.11 50.6433 113.156 46.2769 113.156C41.9106 113.156 38.356 113.11 38.356 113.056C38.356 113.002 41.924 112.956 46.2858 112.956C50.6477 112.956 54.2113 112.998 54.2113 113.056Z" fill="#E0E0E0"/>
<path d="M195.865 60.2909C196.035 59.1511 194.313 58.2109 193.02 58.1194C192.402 58.1425 191.783 58.0936 191.178 57.9738C189.916 57.5578 189.394 56.0352 188.176 55.5527C187.253 55.1866 186.192 55.5111 185.295 55.9312C184.399 56.3514 183.511 56.8797 182.517 56.938C181.625 56.992 180.701 56.6884 179.943 57.0877C179.377 57.3831 179.078 57.9904 178.556 58.3357C178.012 58.6467 177.383 58.8055 176.745 58.7933C176.109 58.7768 175.475 58.8727 174.877 59.0762C174.579 59.1832 174.327 59.3773 174.158 59.6294C173.989 59.8814 173.913 60.1778 173.94 60.474L195.865 60.2909Z" fill="#F5F5F5"/>
<path d="M142.189 27.872C142.452 26.0957 139.758 24.6314 137.729 24.4775C136.766 24.4067 135.762 24.544 134.852 24.2487C132.872 23.6039 132.078 21.216 130.147 20.4547C128.702 19.889 127.025 20.3923 125.638 21.0496C124.251 21.7069 122.855 22.5347 121.29 22.6304C119.952 22.7095 118.449 22.2394 117.276 22.8592C116.384 23.321 115.938 24.2778 115.108 24.8394C114.278 25.401 113.262 25.505 112.271 25.5549C111.281 25.6048 110.251 25.6173 109.346 26C108.44 26.3827 107.696 27.2813 107.883 28.1882L142.189 27.872Z" fill="#EBEBEB"/>
<path d="M50.4871 52.4992C50.6967 51.0807 48.5514 49.9117 46.9191 49.7911C46.152 49.7328 45.3536 49.8452 44.6222 49.608C43.0433 49.0922 42.3922 47.1911 40.8758 46.5837C39.7206 46.1303 38.396 46.5338 37.281 47.058C36.166 47.5821 35.051 48.2436 33.8111 48.306C32.7274 48.3684 31.5499 47.994 30.5999 48.489C29.8908 48.8551 29.5206 49.6164 28.8695 50.0656C28.1917 50.4579 27.4055 50.656 26.6082 50.6356C25.8137 50.6192 25.0228 50.7405 24.2757 50.9933C23.5576 51.3012 22.96 52.0125 23.1116 52.7364L50.4871 52.4992Z" fill="#F5F5F5"/>
<path d="M34.7122 83.7865C32.9795 83.8255 31.2909 84.3047 29.8285 85.1724C28.3661 86.0402 27.1852 87.2636 26.413 88.711C25.6408 90.1583 25.3066 91.7748 25.4463 93.3862C25.5861 94.9976 26.1945 96.5429 27.2061 97.8557L27.2953 97.9763L34.0432 106.533C34.181 106.708 34.3616 106.849 34.5698 106.944C34.7781 107.04 35.008 107.087 35.2401 107.083C35.4722 107.079 35.6997 107.022 35.9036 106.918C36.1074 106.815 36.2816 106.667 36.4115 106.488L42.5083 98.0304C43.659 96.3913 44.4529 94.6733 44.4529 92.6515C44.4502 91.4694 44.1947 90.2996 43.7013 89.2107C43.2079 88.1219 42.4865 87.1358 41.5794 86.3102C40.6723 85.4846 39.5977 84.8362 38.4185 84.4028C37.2393 83.9695 35.9793 83.76 34.7122 83.7865ZM34.9397 99.1328C33.523 99.1328 32.1382 98.741 30.9603 98.0068C29.7824 97.2727 28.8643 96.2293 28.3222 95.0085C27.78 93.7877 27.6382 92.4444 27.9146 91.1484C28.1909 89.8525 28.8731 88.662 29.8749 87.7277C30.8766 86.7933 32.1529 86.157 33.5423 85.8992C34.9317 85.6415 36.3719 85.7738 37.6808 86.2794C38.9896 86.7851 40.1083 87.6414 40.8953 88.7401C41.6824 89.8388 42.1025 91.1305 42.1025 92.4518C42.1025 94.2237 41.3478 95.9231 40.0045 97.176C38.6612 98.4289 36.8394 99.1328 34.9397 99.1328Z" fill="#88B04F"/>
<g opacity="0.3">
<path d="M34.7122 83.7865C32.9795 83.8255 31.2909 84.3047 29.8285 85.1724C28.3661 86.0402 27.1852 87.2636 26.413 88.711C25.6408 90.1583 25.3066 91.7748 25.4463 93.3862C25.5861 94.9976 26.1945 96.5429 27.2061 97.8557L27.2953 97.9763L34.0432 106.533C34.181 106.708 34.3616 106.849 34.5698 106.944C34.7781 107.04 35.008 107.087 35.2401 107.083C35.4722 107.079 35.6997 107.022 35.9036 106.918C36.1074 106.815 36.2816 106.667 36.4115 106.488L42.5083 98.0304C43.659 96.3913 44.4529 94.6733 44.4529 92.6515C44.4502 91.4694 44.1947 90.2996 43.7013 89.2107C43.2079 88.1219 42.4865 87.1358 41.5794 86.3102C40.6723 85.4846 39.5977 84.8362 38.4185 84.4028C37.2393 83.9695 35.9793 83.76 34.7122 83.7865ZM34.9397 99.1328C33.523 99.1328 32.1382 98.741 30.9603 98.0068C29.7824 97.2727 28.8643 96.2293 28.3222 95.0085C27.78 93.7877 27.6382 92.4444 27.9146 91.1484C28.1909 89.8525 28.8731 88.662 29.8749 87.7277C30.8766 86.7933 32.1529 86.157 33.5423 85.8992C34.9317 85.6415 36.3719 85.7738 37.6808 86.2794C38.9896 86.7851 40.1083 87.6414 40.8953 88.7401C41.6824 89.8388 42.1025 91.1305 42.1025 92.4518C42.1025 94.2237 41.3478 95.9231 40.0045 97.176C38.6612 98.4289 36.8394 99.1328 34.9397 99.1328Z" fill="black"/>
</g>
<path d="M34.1503 83.7866C31.7062 83.8474 29.3799 84.7796 27.6502 86.3915C25.9205 88.0033 24.9188 90.1721 24.8512 92.4518C24.7923 94.3884 25.4193 96.2891 26.6352 97.8598L26.7289 97.9805L33.4724 106.538C33.6093 106.716 33.7904 106.86 34.0003 106.958C34.2101 107.056 34.4424 107.105 34.6772 107.101C34.9119 107.097 35.142 107.04 35.3478 106.934C35.5536 106.829 35.7289 106.679 35.8585 106.496L41.9553 98.0387C43.1105 96.3997 43.8999 94.6816 43.8999 92.6598C43.8984 91.4763 43.6435 90.3049 43.1501 89.2145C42.6567 88.1241 41.9347 87.1366 41.0265 86.3101C40.1183 85.4835 39.0422 84.8345 37.8614 84.4011C36.6806 83.9678 35.4189 83.7588 34.1503 83.7866ZM34.3733 97.9306C33.3009 97.9297 32.2528 97.6323 31.3615 97.076C30.4702 96.5197 29.7758 95.7293 29.366 94.8049C28.9562 93.8805 28.8494 92.8636 29.0592 91.8826C29.2689 90.9016 29.7858 90.0006 30.5445 89.2936C31.3031 88.5865 32.2695 88.1052 33.3214 87.9103C34.3733 87.7155 35.4635 87.8159 36.4542 88.1989C37.445 88.5819 38.2917 89.2303 38.8874 90.062C39.4832 90.8938 39.8011 91.8717 39.8011 92.872C39.8006 93.5363 39.6597 94.194 39.3866 94.8075C39.1135 95.421 38.7135 95.9784 38.2095 96.4477C37.7055 96.9171 37.1073 97.2892 36.4491 97.5429C35.7909 97.7966 35.0855 97.9269 34.3733 97.9264V97.9306Z" fill="#88B04F"/>
<path d="M184.136 75.3625C182.814 75.3896 181.524 75.7531 180.408 76.4135C179.291 77.074 178.388 78.0065 177.798 79.1103C177.208 80.2141 176.952 81.4473 177.058 82.6768C177.164 83.9063 177.628 85.0855 178.4 86.087L178.471 86.1785L183.614 92.6972C183.719 92.8268 183.855 92.9314 184.012 93.0023C184.168 93.0733 184.341 93.1085 184.515 93.1053C184.689 93.102 184.86 93.0604 185.013 92.9836C185.167 92.9069 185.299 92.7974 185.398 92.664L190.045 86.2201C190.97 85.0242 191.487 83.5965 191.53 82.1225C191.528 81.2238 191.334 80.3344 190.96 79.5062C190.586 78.678 190.039 77.9275 189.351 77.2984C188.662 76.6693 187.847 76.1741 186.952 75.8418C186.056 75.5094 185.099 75.3465 184.136 75.3625ZM184.31 87.0604C183.231 87.0604 182.176 86.7622 181.279 86.2035C180.381 85.6447 179.682 84.8504 179.268 83.921C178.854 82.9915 178.745 81.9686 178.954 80.9813C179.163 79.9941 179.682 79.0868 180.443 78.374C181.205 77.6612 182.176 77.175 183.234 76.9766C184.291 76.7783 185.389 76.8768 186.386 77.2596C187.384 77.6424 188.238 78.2925 188.84 79.1276C189.442 79.9628 189.765 80.9456 189.769 81.952C189.771 82.622 189.632 83.2859 189.358 83.9056C189.085 84.5253 188.683 85.0886 188.176 85.5632C187.669 86.0378 187.066 86.4143 186.403 86.6713C185.739 86.9282 185.028 87.0604 184.31 87.0604Z" fill="#88B04F"/>
<g opacity="0.3">
<path d="M184.136 75.3625C182.814 75.3896 181.524 75.7531 180.408 76.4135C179.291 77.074 178.388 78.0065 177.798 79.1103C177.208 80.2141 176.952 81.4473 177.058 82.6768C177.164 83.9063 177.628 85.0855 178.4 86.087L178.471 86.1785L183.614 92.6972C183.719 92.8268 183.855 92.9314 184.012 93.0023C184.168 93.0733 184.341 93.1085 184.515 93.1053C184.689 93.102 184.86 93.0604 185.013 92.9836C185.167 92.9069 185.299 92.7974 185.398 92.664L190.045 86.2201C190.97 85.0242 191.487 83.5965 191.53 82.1225C191.528 81.2238 191.334 80.3344 190.96 79.5062C190.586 78.678 190.039 77.9275 189.351 77.2984C188.662 76.6693 187.847 76.1741 186.952 75.8418C186.056 75.5094 185.099 75.3465 184.136 75.3625ZM184.31 87.0604C183.231 87.0604 182.176 86.7622 181.279 86.2035C180.381 85.6447 179.682 84.8504 179.268 83.921C178.854 82.9915 178.745 81.9686 178.954 80.9813C179.163 79.9941 179.682 79.0868 180.443 78.374C181.205 77.6612 182.176 77.175 183.234 76.9766C184.291 76.7783 185.389 76.8768 186.386 77.2596C187.384 77.6424 188.238 78.2925 188.84 79.1276C189.442 79.9628 189.765 80.9456 189.769 81.952C189.771 82.622 189.632 83.2859 189.358 83.9056C189.085 84.5253 188.683 85.0886 188.176 85.5632C187.669 86.0378 187.066 86.4143 186.403 86.6713C185.739 86.9282 185.028 87.0604 184.31 87.0604Z" fill="black"/>
</g>
<path d="M183.707 75.3625C182.386 75.3919 181.099 75.7569 179.984 76.4182C178.869 77.0796 177.969 78.0122 177.38 79.1156C176.791 80.219 176.536 81.4514 176.643 82.6799C176.75 83.9083 177.214 85.0864 177.985 86.087L178.052 86.1785L183.19 92.6972C183.295 92.8302 183.433 92.9377 183.592 93.0107C183.75 93.0837 183.926 93.1201 184.102 93.1168C184.279 93.1136 184.453 93.0707 184.609 92.9919C184.764 92.9131 184.897 92.8007 184.996 92.664L189.644 86.2201C190.567 85.0239 191.083 83.5961 191.124 82.1225C191.123 81.2218 190.929 80.3304 190.553 79.5006C190.178 78.6707 189.629 77.919 188.938 77.2895C188.247 76.6601 187.429 76.1654 186.531 75.8345C185.633 75.5036 184.673 75.3432 183.707 75.3625ZM183.877 86.1411C183.059 86.1411 182.26 85.9149 181.58 85.4912C180.9 85.0674 180.37 84.4652 180.057 83.7605C179.744 83.0559 179.662 82.2805 179.822 81.5324C179.981 80.7844 180.375 80.0973 180.953 79.5579C181.532 79.0186 182.268 78.6513 183.07 78.5025C183.872 78.3537 184.704 78.4301 185.459 78.722C186.215 79.0139 186.86 79.5081 187.315 80.1423C187.769 80.7765 188.011 81.5221 188.011 82.2848C188.012 82.7913 187.905 83.293 187.698 83.7612C187.49 84.2293 187.186 84.6546 186.802 85.0128C186.418 85.371 185.962 85.6551 185.46 85.8487C184.958 86.0423 184.42 86.1416 183.877 86.1411Z" fill="#88B04F"/>
<path d="M39.9214 115.727L8.06812 189.509L67.792 180.348L111.594 189.509L156.452 180.348L216.444 191.023L184.327 115.727L148.491 107.307L112.258 113.747L75.2268 107.307L39.9214 115.727Z" fill="white"/>
<path d="M39.9215 115.727L40.5057 115.581L42.2496 115.165L49.0823 113.522L75.2134 107.282H75.2357L112.254 113.701H112.223L148.456 107.253H148.518L184.35 115.648H184.403V115.694L216.515 190.99L216.595 191.173L216.386 191.135L185.527 185.644L156.394 180.461H156.443L111.58 189.613H111.554L67.7563 180.461H67.792L8.06368 189.613L7.9165 189.634L7.97448 189.505C17.8266 166.724 25.8145 148.279 31.3181 135.529L37.6781 120.856L39.3327 117.046C39.7074 116.189 39.9036 115.752 39.9036 115.752C39.9036 115.752 39.7208 116.197 39.3506 117.062L37.7093 120.89L31.4073 135.562L8.14842 189.538L8.05476 189.43L67.792 180.253H67.8321L111.629 189.405H111.585L156.443 180.253H156.466L185.598 185.436L216.457 190.927L216.328 191.073L184.216 115.777L184.287 115.835L148.456 107.407H148.518L112.272 113.818H112.24L75.2224 107.361L49.118 113.568L42.2719 115.186L40.5191 115.602L39.9215 115.727Z" fill="#263238"/>
<path d="M41.7812 117.707L13.6431 185.794L67.5288 177.624L112.258 187.279L156.452 177.378L211.399 187.279L182.467 117.707L149.022 110.032L112.258 116.472L74.696 110.032L41.7812 117.707Z" fill="white"/>
<path d="M16.7695 178.231L59.5989 168.975L58.0201 160.372L61.5792 158.28L56.0398 138.183L38.9134 124.642L16.7695 178.231Z" fill="#455A64"/>
<path d="M13.6431 185.794L15.7303 180.744L87.5453 165.181L91.4433 175.194L90.1811 177.216L76.6941 179.604L67.5288 177.624L13.6431 185.794Z" fill="#EBEBEB"/>
<path d="M91.4434 164.212L94.2933 174.117L102.567 177.47L114.332 172.594L139.018 165.888L131.316 155.064L91.4434 164.212Z" fill="#EBEBEB"/>
<path d="M62.7612 167.881L76.1055 165.181L73.4429 157.094L63.7201 159.282L61.1333 160.988L62.7612 167.881Z" fill="#E0E0E0"/>
<path d="M60.0361 141.078L64.8797 155.908L72.4528 154.353L71.088 148.658L87.7461 145.176L60.0361 141.078Z" fill="#455A64"/>
<path d="M40.1758 121.597L61.1333 137.288L88.9548 142.21L118.632 135.329L105.087 115.24L74.6962 110.032L41.7814 117.707L40.1758 121.597Z" fill="#EBEBEB"/>
<path d="M109.141 115.935L152.648 178.231L156.452 177.378L114.341 116.106L112.258 116.472L109.141 115.935Z" fill="#EBEBEB"/>
<path d="M73.8889 150.226L79.4015 165.181L128.346 153.516L119.287 139.135L73.8889 150.226Z" fill="#E0E0E0"/>
<path d="M101.117 184.875L101.594 184.213L104.81 179.758L112.521 177.47L117.829 173.742L140.829 167.881L147.974 179.275L112.258 187.279" fill="#E0E0E0"/>
<path d="M141.864 111.284L153.388 123.244L182.468 117.707L149.022 110.032L141.864 111.284Z" fill="#E0E0E0"/>
<path d="M188.587 132.421L167.232 137.958L156.452 124.642L183.195 119.463L188.587 132.421Z" fill="#E0E0E0"/>
<path d="M116.625 115.702L139.018 145.704L164.859 138.786L139.018 111.783L116.625 115.702Z" fill="#EBEBEB"/>
<path d="M179.225 181.48L205.062 172.041L211.4 187.279L179.225 181.48Z" fill="#E0E0E0"/>
<path d="M152.202 143.911L166.242 140.496L181.071 157.094L166.639 161.562L152.202 143.911Z" fill="#455A64"/>
<path d="M169.404 139.135L185.028 155.842L196.793 152.156L189.055 133.553L169.404 139.135Z" fill="#E0E0E0"/>
<path d="M181.072 177.582L169.404 162.485L197.605 154.103L203.332 167.881L199.656 171.33L181.072 177.582Z" fill="#455A64"/>
<path d="M140.387 147.909L161.822 178.231L175.024 180.723L177.513 179.662L150.351 145.109L140.387 147.909Z" fill="#E0E0E0"/>
<path d="M52.5432 170.502L47.2046 147.081L28.3745 150.151L16.7695 178.231L52.5432 170.502Z" fill="#E0E0E0"/>
<path d="M69.8571 111.159V121.884L73.8889 122.358L85.146 134.588L94.8242 133.553L99.4313 139.78L88.9548 142.21L61.1333 137.288L40.1758 121.597L41.7814 117.707L69.8571 111.159Z" fill="#455A64"/>
<path d="M128.711 113.68L144.522 135.2L158.143 131.768L139.018 111.783L128.711 113.68Z" fill="#E0E0E0"/>
<path d="M175.126 135.911L169.404 127.571L184.872 123.494L188.587 132.421L175.126 135.911Z" fill="#EBEBEB"/>
<path d="M152.202 164.624L159.69 162.207L174.212 180.569L161.822 178.231L152.202 164.624Z" fill="#EBEBEB"/>
<path d="M83.1389 180.993L90.101 180.203L92.4202 177.037L101.117 179.587L98.8426 184.384L83.1389 180.993Z" fill="#455A64"/>
<path d="M41.7814 117.728L43.949 117.208L50.3178 115.71L74.6828 109.999H74.7051L112.272 116.418H112.24L149.004 109.965H149.044L182.494 117.632H182.543V117.682C191.423 138.944 201.204 162.473 211.507 187.242L211.583 187.425L211.377 187.387L183.81 182.42L156.43 177.482H156.479L112.285 187.383H112.232L67.5067 177.719H67.5468L13.6566 185.873L13.5139 185.894L13.563 185.765C22.2734 164.736 29.3246 147.713 34.1949 135.949C36.6346 130.075 38.5256 125.511 39.8101 122.416L41.2774 118.901C41.6075 118.107 41.7814 117.707 41.7814 117.707C41.7814 117.707 41.6164 118.123 41.2908 118.918L39.8458 122.445L34.2663 136.007L13.7235 185.823L13.6299 185.719L67.5111 177.532H67.5513L112.281 187.2H112.232L156.426 177.295H156.452L183.855 182.208L211.404 187.175L211.275 187.321C200.977 162.548 191.205 139.036 182.352 117.745L182.423 117.803L148.973 110.119H149.013L112.245 116.542H112.214L74.6605 110.086L50.3535 115.735L43.9713 117.212L41.7814 117.728Z" fill="#263238"/>
<g opacity="0.2">
<path d="M111.594 189.509L112.258 113.747L75.2268 107.307L67.792 180.348L111.594 189.509Z" fill="black"/>
</g>
<g opacity="0.2">
<path d="M148.491 107.307L156.452 180.348L216.444 191.023L184.327 115.727L148.491 107.307Z" fill="black"/>
</g>
<path d="M112.544 42.0534C86.6758 42.615 65.5755 62.2835 64.96 86.4115C64.6877 96.316 67.9076 106.03 74.1253 114.063L74.6026 114.666L74.6695 114.754L109.19 158.55C109.894 159.443 110.819 160.166 111.885 160.656C112.951 161.146 114.128 161.39 115.317 161.367C116.506 161.343 117.671 161.054 118.714 160.522C119.758 159.991 120.649 159.233 121.312 158.313L152.532 115.049C158.437 106.646 162.487 97.8682 162.487 87.5181C162.487 81.4527 161.186 75.4486 158.661 69.8592C156.137 64.2697 152.438 59.2078 147.785 54.9714C143.131 50.735 137.616 47.4097 131.564 45.1912C125.511 42.9727 119.045 41.9059 112.544 42.0534ZM113.703 120.59C106.453 120.591 99.3655 118.586 93.3368 114.83C87.308 111.073 82.6089 105.734 79.8338 99.4863C77.0587 93.2387 76.3321 86.3639 77.746 79.7313C79.1599 73.0986 82.6508 67.0059 87.7771 62.2238C92.9035 57.4417 99.4351 54.1849 106.546 52.8653C113.657 51.5457 121.027 52.2225 127.726 54.8102C134.424 57.398 140.149 61.7803 144.178 67.4031C148.206 73.0259 150.356 79.6365 150.356 86.399C150.356 95.4664 146.494 104.162 139.621 110.574C132.747 116.986 123.425 120.589 113.703 120.59Z" fill="#88B04F"/>
<g opacity="0.3">
<path d="M112.544 42.0534C86.6758 42.615 65.5755 62.2835 64.96 86.4115C64.6877 96.316 67.9076 106.03 74.1253 114.063L74.6026 114.666L74.6695 114.754L109.19 158.55C109.894 159.443 110.819 160.166 111.885 160.656C112.951 161.146 114.128 161.39 115.317 161.367C116.506 161.343 117.671 161.054 118.714 160.522C119.758 159.991 120.649 159.233 121.312 158.313L152.532 115.049C158.437 106.646 162.487 97.8682 162.487 87.5181C162.487 81.4527 161.186 75.4486 158.661 69.8592C156.137 64.2697 152.438 59.2078 147.785 54.9714C143.131 50.735 137.616 47.4097 131.564 45.1912C125.511 42.9727 119.045 41.9059 112.544 42.0534ZM113.703 120.59C106.453 120.591 99.3655 118.586 93.3368 114.83C87.308 111.073 82.6089 105.734 79.8338 99.4863C77.0587 93.2387 76.3321 86.3639 77.746 79.7313C79.1599 73.0986 82.6508 67.0059 87.7771 62.2238C92.9035 57.4417 99.4351 54.1849 106.546 52.8653C113.657 51.5457 121.027 52.2225 127.726 54.8102C134.424 57.398 140.149 61.7803 144.178 67.4031C148.206 73.0259 150.356 79.6365 150.356 86.399C150.356 95.4664 146.494 104.162 139.621 110.574C132.747 116.986 123.425 120.589 113.703 120.59Z" fill="black"/>
</g>
<path d="M109.654 42.0534C83.7857 42.615 62.6854 62.2835 62.0699 86.4115C61.7976 96.316 65.0174 106.03 71.2352 114.063L71.7124 114.666L71.7793 114.754L106.3 158.55C107.004 159.443 107.928 160.166 108.995 160.656C110.061 161.146 111.238 161.39 112.427 161.367C113.615 161.343 114.781 161.054 115.824 160.522C116.867 159.991 117.758 159.233 118.422 158.313L149.642 115.049C155.547 106.646 159.597 97.8682 159.597 87.5181C159.597 81.4527 158.296 75.4486 155.771 69.8592C153.246 64.2697 149.548 59.2078 144.895 54.9714C140.241 50.735 134.726 47.4097 128.673 45.1912C122.621 42.9727 116.154 41.9059 109.654 42.0534ZM110.813 120.59C103.563 120.591 96.4754 118.586 90.4466 114.83C84.4179 111.073 79.7188 105.734 76.9437 99.4863C74.1685 93.2387 73.442 86.3639 74.8559 79.7313C76.2698 73.0986 79.7606 67.0059 84.887 62.2238C90.0133 57.4417 96.5449 54.1849 103.656 52.8653C110.767 51.5457 118.137 52.2225 124.836 54.8102C131.534 57.398 137.259 61.7803 141.287 67.4031C145.316 73.0259 147.466 79.6365 147.466 86.399C147.466 95.4664 143.604 104.162 136.731 110.574C129.857 116.986 120.534 120.589 110.813 120.59Z" fill="#88B04F"/>
<g opacity="0.3">
<path d="M131.9 112.187C131.311 112.807 92.5496 122.354 91.9653 122.974C99.3957 125.087 108.467 126.926 116.237 126.506C120.612 126.273 125.157 125.545 128.635 123.032C132.114 120.519 134.005 115.773 131.9 112.187Z" fill="black"/>
</g>
<path d="M94.8821 43.1891C93.7636 44.2983 92.9492 45.6432 92.5081 47.1092C92.067 48.5752 92.0123 50.119 92.3488 51.609C92.6878 53.0483 93.3657 54.6541 92.5183 55.8979C91.6709 57.1418 89.6996 57.3539 88.9102 58.6144C87.9736 60.0912 89.2224 61.9424 89.0663 63.6647C88.9653 64.4677 88.5612 65.2109 87.9262 65.7613C87.2912 66.3117 86.4668 66.6332 85.6008 66.6682C87.8358 67.9301 90.4008 68.5923 93.0134 68.5818C93.5486 67.7165 94.0823 66.8512 94.6145 65.9859C93.999 66.9053 94.3915 68.1824 95.2344 68.9271C96.0774 69.6717 97.2548 69.9837 98.401 70.1751C101.151 70.5871 103.965 70.4001 106.625 69.6286C109.284 68.8571 111.716 67.5221 113.73 65.728" fill="#263238"/>
<path d="M126.156 52.2163C125.598 51.1514 124.786 50.2029 124.372 49.088C123.435 46.696 124.305 43.7466 122.686 41.6957C121.535 40.2314 119.475 39.7114 117.552 39.4243C115.63 39.1373 113.592 38.9459 112.031 37.8685C110.885 37.0739 110.122 35.8759 108.98 35.0813C107.352 33.9456 105.171 33.7751 103.147 33.9207C101.122 34.0663 98.9452 34.528 97.2281 35.6304C95.511 36.7328 94.1998 38.5174 94.1552 40.4643C94.1329 41.4128 94.4005 42.3696 94.2221 43.3014C94.0258 44.329 93.3301 45.2026 92.942 46.1843C92.5768 47.2382 92.5977 48.3754 93.0015 49.4169C93.4052 50.4585 94.1688 51.3452 95.172 51.9376L111.897 67.1507C115.019 67.808 122.048 65.599 124.037 63.2486C126.026 60.8982 127.556 54.912 126.156 52.2163Z" fill="#263238"/>
<path d="M95.1899 49.7203C95.1899 45.7725 97.6652 40.7805 101.88 40.951L115.215 43.2765C115.835 43.302 116.423 43.5435 116.861 43.9532C117.3 44.363 117.557 44.9112 117.584 45.4896L118.163 75.0922H118.253C118.253 75.0922 115.844 83.5952 106.996 81.5776C105.238 81.1616 104.32 79.4726 103.874 77.688H103.789C103.767 77.4717 103.753 77.272 103.735 77.0681C103.471 75.7337 103.359 74.3769 103.401 73.0205C103.209 70.6368 103.147 69.6592 103.147 69.6925C103.147 69.7258 97.7009 69.1766 96.1444 62.6829C95.3728 59.488 95.1899 54.1091 95.1899 49.7203Z" fill="#FFBE9D"/>
<path d="M107.406 53.768C107.41 53.8773 107.438 53.9847 107.487 54.084C107.536 54.1833 107.606 54.2726 107.692 54.3468C107.778 54.421 107.879 54.4786 107.989 54.5163C108.099 54.5541 108.216 54.5712 108.333 54.5667C108.45 54.5701 108.565 54.5516 108.674 54.5122C108.782 54.4729 108.881 54.4136 108.964 54.3379C109.048 54.2622 109.114 54.1716 109.158 54.0715C109.203 53.9715 109.226 53.864 109.225 53.7555C109.221 53.6462 109.193 53.5389 109.144 53.4396C109.095 53.3402 109.025 53.2509 108.939 53.1768C108.853 53.1026 108.752 53.045 108.642 53.0072C108.532 52.9695 108.415 52.9523 108.298 52.9568C108.182 52.9535 108.066 52.972 107.957 53.0113C107.849 53.0506 107.75 53.1099 107.667 53.1856C107.584 53.2613 107.518 53.3519 107.473 53.452C107.428 53.5521 107.405 53.6595 107.406 53.768Z" fill="#263238"/>
<path d="M98.196 54.4253C98.2006 54.5346 98.2282 54.6419 98.2774 54.7412C98.3265 54.8406 98.3961 54.9299 98.4823 55.004C98.5684 55.0782 98.6694 55.1358 98.7795 55.1736C98.8896 55.2113 99.0065 55.2285 99.1237 55.224C99.2418 55.2275 99.3595 55.2083 99.4694 55.1677C99.5793 55.1271 99.6791 55.066 99.7627 54.988C99.8463 54.9101 99.9118 54.817 99.9553 54.7145C99.9989 54.6119 100.019 54.5022 100.016 54.392C100.005 54.172 99.9017 53.9649 99.7279 53.8159C99.554 53.667 99.3239 53.5884 99.088 53.5974C98.9701 53.5934 98.8525 53.612 98.7426 53.6521C98.6327 53.6922 98.5329 53.753 98.4492 53.8306C98.3655 53.9083 98.2999 54.0011 98.2563 54.1034C98.2128 54.2057 98.1922 54.3153 98.196 54.4253Z" fill="#263238"/>
<path d="M96.2603 52.5658C96.3807 52.703 97.1523 52.1082 98.2004 52.1123C99.2485 52.1165 100.024 52.6947 100.145 52.5533C100.203 52.4909 100.082 52.2413 99.748 51.9709C99.3107 51.6315 98.7603 51.4447 98.1914 51.4426C97.6225 51.4522 97.0757 51.6497 96.6483 52C96.3361 52.2496 96.2023 52.5034 96.2603 52.5658Z" fill="#263238"/>
<path d="M106.063 52.3411C106.206 52.4659 106.955 51.8045 108.066 51.7046C109.176 51.6048 110.068 52.0874 110.175 51.9418C110.229 51.8752 110.077 51.6381 109.689 51.4093C109.177 51.1204 108.577 50.9961 107.981 51.0557C107.389 51.1116 106.833 51.3502 106.402 51.7338C106.086 52.0291 105.992 52.287 106.063 52.3411Z" fill="#263238"/>
<path d="M103.102 58.9597C102.579 58.8426 102.043 58.7853 101.505 58.7892C101.26 58.7892 101.019 58.7475 100.97 58.5895C100.931 58.3523 100.971 58.1096 101.086 57.8947C101.282 57.3248 101.487 56.7216 101.701 56.0935C102.553 53.5267 103.151 51.426 103.039 51.3927C102.928 51.3594 102.147 53.4186 101.3 55.9687C101.095 56.601 100.903 57.2167 100.716 57.7824C100.578 58.0705 100.554 58.3948 100.649 58.6976C100.692 58.7783 100.755 58.8485 100.832 58.9026C100.91 58.9568 101 58.9934 101.095 59.0096C101.241 59.0381 101.391 59.0479 101.541 59.0387C102.063 59.0742 102.587 59.0476 103.102 58.9597Z" fill="#263238"/>
<path d="M103.151 69.7091C106.458 69.5601 109.657 68.5593 112.392 66.8179C112.392 66.8179 110.412 71.4563 103.329 71.2525L103.151 69.7091Z" fill="#EB996E"/>
<path d="M103.659 61.1187C103.829 60.8911 104.058 60.7076 104.325 60.5853C104.592 60.4631 104.888 60.4061 105.185 60.4198C105.4 60.4267 105.612 60.4732 105.808 60.5567C106.004 60.6403 106.18 60.7592 106.326 60.9066C106.466 61.0505 106.555 61.231 106.582 61.4237C106.608 61.6164 106.57 61.812 106.474 61.984C106.328 62.1553 106.131 62.2823 105.908 62.3489C105.685 62.4156 105.446 62.4189 105.22 62.3584C104.752 62.2331 104.316 62.0224 103.936 61.7386C103.821 61.6746 103.721 61.5897 103.642 61.489C103.605 61.4395 103.585 61.3807 103.585 61.3205C103.585 61.2603 103.605 61.2015 103.642 61.152" fill="#88B04F"/>
<path d="M106.001 59.4214C105.84 59.4214 105.903 60.4032 105.051 61.152C104.199 61.9008 103.066 61.8592 103.066 61.984C103.066 62.0464 103.329 62.1587 103.807 62.1421C104.424 62.1129 105.011 61.8833 105.466 61.4931C105.898 61.1156 106.159 60.5972 106.193 60.0454C106.206 59.6461 106.072 59.4089 106.001 59.4214Z" fill="#263238"/>
<path d="M105.702 49.2794C105.818 49.5206 106.777 49.3459 107.932 49.4083C109.087 49.4707 110.019 49.7037 110.162 49.4749C110.22 49.3667 110.046 49.1421 109.658 48.9258C109.142 48.6642 108.57 48.5148 107.984 48.4889C107.398 48.4629 106.813 48.5611 106.273 48.776C105.845 48.959 105.648 49.1629 105.702 49.2794Z" fill="#263238"/>
<path d="M96.8088 49.791C97.0139 49.9866 97.7632 49.7286 98.682 49.6621C99.6007 49.5955 100.39 49.7037 100.555 49.4749C100.627 49.3667 100.488 49.167 100.136 48.9923C99.654 48.7795 99.1186 48.6946 98.5883 48.7469C98.0575 48.7825 97.5478 48.9553 97.1165 49.2461C96.8043 49.479 96.7151 49.6954 96.8088 49.791Z" fill="#263238"/>
<path d="M118.19 43.8423C117.41 43.0103 116.183 42.6816 115.024 42.4279C110.017 41.3405 104.889 40.8112 99.748 40.8512C99.2664 41.8995 100.042 43.1392 101.086 43.7175C102.13 44.2957 103.401 44.4163 104.592 44.6618C105.782 44.9072 107.04 45.3648 107.665 46.3258C108.329 47.3699 108.111 48.7344 108.713 49.8077C109.756 51.6548 112.758 51.8877 113.788 53.7514C114.569 55.1533 113.891 56.8381 113.895 58.4189C113.896 59.221 114.08 60.0136 114.436 60.744C114.791 61.4744 115.31 62.1256 115.956 62.6544C116.603 63.1831 117.363 63.5771 118.186 63.8102C119.009 64.0432 119.875 64.1099 120.728 64.0058C120.231 58.3815 119.738 52.7585 119.247 47.137C119.149 45.9888 119.011 44.7283 118.19 43.8423Z" fill="#263238"/>
<path d="M132.351 56.3597C131.285 55.6941 130 55.1657 129.452 54.0841C128.658 52.5117 129.782 50.3901 128.644 49.0131C127.61 47.7651 125.166 48.1437 124.184 46.8499C123.417 45.839 123.966 44.7699 123.591 43.8547C123.217 42.9395 121.633 42.2781 120.607 42.5277L114.1 54.6374C113.9 58.4397 113.431 60.5113 114.609 62.5664C115.255 63.6937 116.04 64.7712 116.393 66.0025C116.745 67.2339 116.634 68.6982 115.648 69.5843C120.581 69.3014 124.8 66.3187 128.685 63.4608L132.792 60.4365C133.248 60.1551 133.62 59.7718 133.876 59.3216C134.398 58.24 133.412 57.0253 132.351 56.3597Z" fill="#263238"/>
<path d="M128.653 62.3293C128.492 62.4009 128.323 62.4553 128.149 62.4915C127.647 62.6079 127.126 62.6417 126.611 62.5914C125.79 62.5177 125.004 62.2453 124.332 61.801C123.438 61.193 122.806 60.3082 122.548 59.305C122.387 58.7279 122.352 58.1268 122.445 57.537C122.577 56.9153 122.796 56.3125 123.096 55.744C123.418 55.1512 123.645 54.5177 123.77 53.8637C123.835 53.529 123.819 53.1851 123.723 52.8569C123.627 52.5287 123.454 52.2246 123.217 51.9667C122.69 51.4717 121.843 51.4426 121.036 51.2554C120.598 51.173 120.197 50.9701 119.885 50.673C119.592 50.3469 119.413 49.9447 119.372 49.5206C119.256 48.6886 119.524 47.8566 119.568 47.0787C119.609 46.6838 119.553 46.2854 119.403 45.9139C119.237 45.5523 118.938 45.2576 118.56 45.0819C117.784 44.7034 116.874 44.745 115.996 44.7907C115.104 44.8764 114.204 44.752 113.378 44.4288C112.58 44.1011 111.894 43.576 111.393 42.9104C110.956 42.2616 110.631 41.5527 110.43 40.8096C110.24 40.1246 109.976 39.4597 109.64 38.8253C109.293 38.2505 108.819 37.7513 108.249 37.361C107.302 36.7144 106.16 36.3658 104.986 36.3658C103.813 36.3658 102.67 36.7144 101.724 37.361C101.067 37.7905 100.498 38.3258 100.042 38.9418C99.6625 39.4744 99.3511 40.0468 99.1147 40.6474C99.1178 40.6049 99.1268 40.5629 99.1415 40.5226C99.1683 40.4435 99.1995 40.3187 99.2619 40.169C99.436 39.7168 99.6665 39.2854 99.9488 38.8835C100.397 38.2386 100.966 37.6748 101.63 37.2195C102.508 36.6214 103.548 36.2653 104.632 36.192C105.965 36.1183 107.286 36.4689 108.378 37.1862C108.981 37.5922 109.483 38.1143 109.85 38.7171C110.197 39.364 110.471 40.043 110.666 40.743C110.865 41.459 111.181 42.1423 111.603 42.769C112.078 43.3926 112.725 43.8843 113.476 44.1917C114.262 44.4903 115.116 44.6004 115.96 44.512C116.852 44.4704 117.802 44.4122 118.667 44.8323C119.106 45.0344 119.453 45.3769 119.644 45.7974C119.811 46.2055 119.875 46.6439 119.831 47.0787C119.778 47.9107 119.519 48.7094 119.626 49.479C119.66 49.8494 119.816 50.201 120.072 50.4858C120.35 50.7437 120.701 50.9214 121.085 50.9974C121.473 51.0931 121.879 51.1389 122.28 51.2387C122.694 51.3234 123.076 51.5102 123.386 51.7795C123.65 52.0648 123.842 52.4015 123.949 52.765C124.055 53.1284 124.073 53.5095 124.002 53.8803C123.87 54.5567 123.633 55.2113 123.297 55.823C122.997 56.3769 122.777 56.966 122.646 57.5744C122.553 58.1368 122.58 58.7108 122.726 59.2634C122.972 60.2251 123.572 61.0759 124.421 61.6679C125.068 62.1066 125.825 62.3843 126.62 62.4749C127.301 62.55 127.992 62.5005 128.653 62.3293Z" fill="#455A64"/>
<path d="M133.988 53.6307C134.086 53.7317 134.16 53.8507 134.206 53.9801C134.341 54.3577 134.327 54.768 134.166 55.1366C134.054 55.4057 133.871 55.6445 133.635 55.8313C133.346 56.0501 132.997 56.1872 132.627 56.2265C132.18 56.2773 131.725 56.2121 131.315 56.0382C130.904 55.8643 130.553 55.5884 130.299 55.2406C130.003 54.8397 129.812 54.3794 129.742 53.8969C129.682 53.3785 129.723 52.8544 129.862 52.3494C130.098 51.3136 130.66 50.2694 130.5 49.1046C130.482 48.8188 130.402 48.5393 130.265 48.2832C130.128 48.0272 129.936 47.7999 129.701 47.6153C129.146 47.2995 128.481 47.1966 127.846 47.3283C127.141 47.471 126.415 47.4963 125.701 47.4032C125.321 47.3118 124.981 47.1126 124.729 46.8333C124.486 46.5511 124.313 46.2232 124.22 45.8723C124.087 45.1976 124.045 44.51 124.095 43.8256C124.106 43.1852 123.97 42.55 123.698 41.9619C123.18 40.8419 122.223 39.949 121.022 39.4659C119.876 39.0083 118.641 39.104 117.53 39.1872C116.48 39.326 115.413 39.3091 114.368 39.1373C113.51 38.9586 112.699 38.6189 111.986 38.1389C111.449 37.7814 110.973 37.3509 110.573 36.8617C110.222 36.4527 109.952 35.9894 109.774 35.4931C110.031 35.9504 110.329 36.386 110.666 36.7952C111.615 37.8939 112.939 38.656 114.417 38.9542C115.443 39.1027 116.487 39.1027 117.512 38.9542C118.623 38.8627 119.903 38.7504 121.129 39.2246C122.4 39.7238 123.418 40.6569 123.975 41.8329C124.263 42.4536 124.408 43.1242 124.399 43.8006C124.348 44.4628 124.389 45.1282 124.519 45.7808C124.578 46.0916 124.728 46.3811 124.952 46.6175C125.177 46.8539 125.466 47.0279 125.79 47.1203C126.47 47.2049 127.161 47.1795 127.833 47.0454C128.538 46.9034 129.275 47.0259 129.884 47.3865C130.146 47.5929 130.361 47.8468 130.514 48.1329C130.667 48.419 130.757 48.7312 130.776 49.0505C130.838 49.6418 130.773 50.2386 130.585 50.8061C130.428 51.3552 130.237 51.8669 130.107 52.3744C129.966 52.8535 129.922 53.3529 129.978 53.847C130.039 54.2942 130.211 54.7217 130.482 55.095C130.713 55.4197 131.034 55.6796 131.411 55.8467C131.788 56.0138 132.207 56.0819 132.623 56.0435C132.964 56.0117 133.289 55.8905 133.559 55.6941C133.785 55.5264 133.963 55.3091 134.077 55.0617C134.24 54.7145 134.272 54.3256 134.166 53.9593C134.113 53.847 134.053 53.7373 133.988 53.6307Z" fill="#263238"/>
<path d="M82.9561 63.0781C82.8731 63.4835 82.9407 63.9032 83.1479 64.2679C83.2631 64.478 83.4269 64.6616 83.6274 64.8055C83.8279 64.9494 84.0602 65.05 84.3075 65.0999C84.6356 65.1459 84.9709 65.1056 85.2759 64.9836C85.5808 64.8616 85.8431 64.6627 86.0335 64.4093C86.2464 64.1115 86.3439 63.7549 86.3101 63.3984C86.265 63.0051 86.1425 62.6229 85.9488 62.2711C85.5742 61.5348 84.9186 60.7652 84.8472 59.746C84.8088 59.2302 84.8862 58.7126 85.0743 58.2262C85.2624 57.7398 85.5572 57.2954 85.9399 56.9213C86.3409 56.5257 86.8193 56.2052 87.3493 55.977C87.8927 55.7532 88.4656 55.5979 89.053 55.5152C89.6191 55.4345 90.176 55.305 90.7165 55.1284C91.2216 54.9592 91.6465 54.6292 91.9163 54.1965C92.1459 53.7592 92.2401 53.2708 92.1883 52.7863C92.1439 52.3109 92.0298 51.8434 91.8494 51.3968C91.5149 50.5149 91.0867 49.6663 91.0109 48.7885C90.9394 47.9806 91.1273 47.1711 91.5506 46.4631C91.9156 45.8978 92.3923 45.4023 92.9555 45.0029C93.3641 44.6992 93.7487 44.3683 94.1061 44.0128C94.4006 43.7035 94.6237 43.341 94.7618 42.9479C94.7618 42.9479 94.7618 42.977 94.7618 43.0311C94.7503 43.112 94.7294 43.1915 94.6993 43.2682C94.5905 43.5652 94.4225 43.8404 94.2043 44.0794C93.8565 44.4507 93.4777 44.7956 93.0714 45.1111C92.5342 45.5099 92.0806 45.9979 91.7334 46.5504C91.3448 47.2285 91.1773 47.9978 91.2518 48.7636C91.332 49.5956 91.7513 50.4276 92.1036 51.3095C92.2964 51.7767 92.418 52.2668 92.4649 52.7655C92.5244 53.2986 92.4208 53.8367 92.166 54.3172C91.8664 54.8046 91.3929 55.1785 90.828 55.3738C90.2706 55.5613 89.6958 55.7005 89.1109 55.7898C88.5469 55.8691 87.9966 56.0174 87.4741 56.2308C86.9716 56.4419 86.5173 56.7413 86.1361 57.1127C85.7777 57.4601 85.5006 57.8732 85.3225 58.3258C85.1444 58.7784 85.0691 59.2606 85.1014 59.7418C85.1549 60.6736 85.7659 61.4058 86.154 62.1879C86.3562 62.5664 86.4803 62.9771 86.5197 63.3984C86.5561 63.8001 86.4392 64.2009 86.1896 64.53C85.9749 64.8074 85.6807 65.0229 85.3407 65.1517C85.0007 65.2804 84.6288 65.3172 84.2674 65.258C83.8359 65.1552 83.4573 64.9135 83.1986 64.5754C82.9398 64.2374 82.8176 63.8249 82.8536 63.4109C82.8651 63.295 82.8999 63.1821 82.9561 63.0781Z" fill="#263238"/>
<path d="M84.5839 88.4458C84.5839 88.4458 85.3332 82.8506 88.2233 80.055C91.1134 77.2595 103.209 73.7568 103.209 73.7568C103.209 73.7568 103.708 77.7462 106.607 78.7072C109.68 79.7306 113.15 79.3478 115.398 76.9101C116.758 75.3478 117.713 73.5143 118.19 71.552C118.19 71.552 132.636 72.8 134.991 76.4858C137.346 80.1715 140.392 94.4944 140.392 94.4944L126.887 97.1693L128.725 121.821H92.8572L93.5574 98.6835L83.79 99.9856L84.5839 88.4458Z" fill="#455A64"/>
<path d="M124.224 97.9597C124.182 97.7781 124.165 97.592 124.175 97.4064C124.175 97.0486 124.175 96.5286 124.175 95.8922C124.175 94.6109 124.198 92.847 124.242 90.9002C124.287 88.9533 124.34 87.1853 124.398 85.9082C124.425 85.2675 124.452 84.7517 124.479 84.3939C124.475 84.2071 124.501 84.0207 124.555 83.8406C124.594 84.0226 124.609 84.2085 124.599 84.3939C124.599 84.7517 124.599 85.2717 124.599 85.9082C124.599 87.1894 124.577 88.9533 124.532 90.9002C124.488 92.847 124.434 94.615 124.376 95.8922C124.349 96.5286 124.318 97.0445 124.296 97.4022C124.301 97.5903 124.277 97.778 124.224 97.9597Z" fill="#263238"/>
<path d="M90.2304 87.8093C90.3151 87.7885 91.158 90.3053 92.1125 93.3961C93.0669 96.487 93.7805 99.0371 93.6958 99.0579C93.611 99.0787 92.7726 96.5619 91.8137 93.4752C90.8548 90.3885 90.1501 87.8342 90.2304 87.8093Z" fill="#263238"/>
<path d="M133.501 75.5789C133.501 75.6288 132.859 75.7411 131.873 76.0905C129.288 77.0134 127.136 78.7597 125.799 81.0201C125.29 81.8813 125.081 82.4678 125.027 82.4512C125.038 82.3084 125.073 82.168 125.13 82.0352C125.255 81.6563 125.413 81.2876 125.603 80.9328C126.23 79.7557 127.101 78.7058 128.165 77.8435C129.229 76.9811 130.465 76.3232 131.802 75.9075C132.205 75.7799 132.618 75.6839 133.038 75.6205C133.188 75.5801 133.345 75.5659 133.501 75.5789Z" fill="#263238"/>
<path d="M88.0093 81.1824C88.0896 81.1824 88.375 81.9437 88.6426 82.9213C88.9102 83.8989 89.0574 84.7101 88.9727 84.7309C88.8879 84.7517 88.6069 83.9696 88.3393 82.992C88.0717 82.0144 87.9246 81.2032 88.0093 81.1824Z" fill="#263238"/>
<path d="M138.01 94.9479C138.01 94.9479 133.965 114.109 133.501 115.748C133.038 117.387 132.293 121.801 127.391 122.716C120.777 123.964 94.8064 123.086 94.8064 123.086L99.7124 117.304L122.436 111.359L125.558 97.4189L138.01 94.9479Z" fill="#FFBE9D"/>
<path d="M99.2796 114.067C99.3698 114.203 99.4346 114.352 99.4714 114.508C99.6045 114.926 99.6912 115.355 99.73 115.789C99.8669 117.231 99.5442 118.678 98.8024 119.949C98.4078 120.658 97.9078 121.31 97.3172 121.888C96.8266 122.357 96.2354 122.724 95.5822 122.965C95.1438 123.12 94.6845 123.216 94.2175 123.252C94.0476 123.278 93.8744 123.278 93.7046 123.252C94.3126 123.148 94.9096 122.993 95.4886 122.791C96.0974 122.536 96.6461 122.171 97.1031 121.717C97.6594 121.151 98.1359 120.52 98.5214 119.841C99.2358 118.61 99.5751 117.221 99.5026 115.823C99.458 114.724 99.2216 114.084 99.2796 114.067Z" fill="#EB996E"/>
<path d="M77.5327 91.391C77.5327 91.391 81.1944 102.885 82.7108 107.852C84.3253 113.127 87.8532 125.108 95.3727 122.982C101.095 121.36 99.4135 114.446 99.4135 114.446L93.5575 98.6627L89.0038 99.3741L84.584 88.7286L77.5327 91.391Z" fill="#FFBE9D"/>
<path d="M97.4109 114.945C97.6154 114.089 97.6154 113.201 97.4109 112.345C97.169 111.424 96.7554 110.549 96.1888 109.762C95.4747 108.8 94.6814 107.892 93.8161 107.045C92.947 106.183 92.1507 105.26 91.4345 104.283C90.862 103.477 90.3623 102.628 89.9404 101.745C89.6549 101.152 89.4106 100.542 89.2089 99.919C89.1163 99.6945 89.0563 99.4595 89.0305 99.2202C89.1456 99.4332 89.2425 99.6544 89.3204 99.8816C89.4988 100.298 89.7664 100.922 90.1411 101.658C90.5835 102.519 91.0965 103.346 91.6753 104.133C92.395 105.091 93.188 105.999 94.048 106.85C94.9244 107.707 95.7211 108.633 96.4297 109.616C97.0065 110.44 97.4134 111.357 97.6294 112.32C97.7688 112.968 97.7688 113.635 97.6294 114.284C97.5937 114.458 97.5415 114.629 97.4733 114.795C97.4605 114.848 97.4394 114.898 97.4109 114.945Z" fill="#EB996E"/>
<path d="M84.584 88.7287C84.584 88.7287 84.6108 84.1527 84.1782 82.8464L80.6994 75.5997C80.6994 75.5997 79.8074 75.088 79.3614 76.5316C78.9154 77.9751 80.2891 79.4644 80.2891 79.4644L80.3961 81.3613L79.0046 80.288L76.2974 75.554C76.2974 75.554 74.4286 72.1053 73.9469 72.642C73.4653 73.1786 73.6214 74.306 74.4242 75.7828L76.2528 79.1607C76.2528 79.1607 76.5293 79.7597 75.5704 78.8903C74.6115 78.0208 72.5287 73.8109 72.096 73.2826C71.6634 72.7543 71.0747 71.2026 70.1426 71.5645C69.2104 71.9264 70.4057 73.7652 70.4057 73.7652L73.3894 80.0052C73.3894 80.0052 71.659 77.6423 71.3468 77.2429C71.0346 76.8436 70.312 75.4916 69.7456 74.801C69.1792 74.1104 68.5593 73.8442 68.1489 74.0106C67.9487 74.0778 67.7835 74.2139 67.6873 74.391C67.5911 74.5681 67.5712 74.7729 67.6316 74.9632L70.8205 80.1216C70.8205 80.1216 72.4127 82.4388 72.4127 82.6176C72.4127 82.7965 71.0212 81.8522 71.0212 81.8522L69.6832 80.2631C69.6832 80.2631 68.2381 77.8836 67.4799 78.0125C66.7217 78.1415 66.8555 78.6698 66.8555 78.6698L69.5315 83.0045L73.4296 87.6804L77.5952 91.5408L80.0036 90.817L84.584 88.7287Z" fill="#FFBE9D"/>
<path d="M76.9173 87.9549C77.0386 87.4861 77.1191 87.0089 77.1582 86.528C77.3143 85.6711 77.6309 84.3856 78.7593 83.5578C79.2152 83.2028 79.7848 82.9994 80.3783 82.9796H80.579V82.7799C80.5166 81.8896 80.5522 81.041 80.5166 80.4794C80.5454 80.1702 80.4997 79.8589 80.3828 79.5684C80.3208 79.8672 80.2894 80.1709 80.2891 80.4752C80.2207 81.2598 80.1954 82.047 80.2133 82.834L80.3961 82.6343C79.7127 82.6327 79.0508 82.8567 78.5274 83.2666C77.9559 83.6968 77.5198 84.2631 77.2652 84.9056C77.0652 85.4175 76.9392 85.9519 76.8906 86.4948C76.8133 86.9795 76.8223 87.4729 76.9173 87.9549Z" fill="#EB996E"/>
<path d="M140.914 128.806H83.2862C82.0891 128.806 81.1187 129.711 81.1187 130.828V145.484C81.1187 146.6 82.0891 147.505 83.2862 147.505H140.914C142.111 147.505 143.081 146.6 143.081 145.484V130.828C143.081 129.711 142.111 128.806 140.914 128.806Z" fill="white"/>
<path d="M140.936 147.509C140.936 147.509 141.079 147.509 141.346 147.46C141.742 147.384 142.107 147.205 142.399 146.944C142.638 146.731 142.822 146.471 142.938 146.183C143.054 145.895 143.098 145.586 143.068 145.28C143.068 144.548 143.068 143.707 143.068 142.784C143.068 140.891 143.068 138.578 143.068 135.891C143.068 134.546 143.068 133.112 143.068 131.589C143.084 131.207 143.07 130.825 143.028 130.445C142.945 130.068 142.745 129.723 142.453 129.451C142.152 129.17 141.765 128.983 141.346 128.914C140.902 128.879 140.455 128.869 140.008 128.885L83.3397 128.914C82.8453 128.914 82.3674 129.08 81.9937 129.381C81.62 129.683 81.3758 130.101 81.3059 130.557C81.2658 130.853 81.3059 131.186 81.2836 131.502V144.539C81.2836 144.839 81.2836 145.142 81.2836 145.442C81.2781 145.728 81.3405 146.013 81.4665 146.274C81.5912 146.533 81.7759 146.762 82.0072 146.947C82.2386 147.131 82.5109 147.265 82.8045 147.339C83.0969 147.401 83.3971 147.425 83.6965 147.41H91.9653H117.441L134.616 147.447H139.286L134.616 147.468L117.441 147.501L91.9653 147.526H83.6564C83.3299 147.543 83.0026 147.516 82.6841 147.447C82.197 147.323 81.768 147.051 81.4645 146.674C81.1609 146.298 81.0001 145.838 81.0071 145.367V142.646C81.0071 140.214 81.0071 137.739 81.0071 135.221V131.427C80.9984 131.102 81.0074 130.777 81.0339 130.453C81.0827 130.117 81.219 129.797 81.4308 129.522C81.6435 129.245 81.9232 129.02 82.2473 128.864C82.5713 128.707 82.9304 128.625 83.2951 128.623L139.964 128.656C140.41 128.643 140.857 128.655 141.302 128.694C141.745 128.771 142.152 128.971 142.47 129.268C142.789 129.565 143.003 129.945 143.086 130.358C143.132 130.746 143.146 131.137 143.126 131.527C143.126 133.049 143.126 134.483 143.126 135.828C143.126 138.516 143.126 140.82 143.126 142.721C143.126 143.664 143.126 144.496 143.126 145.217C143.145 145.557 143.082 145.897 142.943 146.212C142.819 146.47 142.64 146.702 142.417 146.894C142.117 147.155 141.742 147.33 141.338 147.397C141.236 147.414 141.133 147.424 141.03 147.426L140.936 147.509Z" fill="#263238"/>
<path d="M87.3001 136.669C87.2984 136.457 87.3434 136.247 87.4324 136.053C87.5214 135.858 87.6525 135.683 87.8174 135.538C87.9823 135.393 88.1775 135.281 88.3908 135.209C88.6041 135.137 88.831 135.107 89.0573 135.121C89.3172 135.11 89.5763 135.154 89.8146 135.252C90.0529 135.349 90.2638 135.497 90.431 135.683L89.8557 136.169C89.7682 136.06 89.6544 135.971 89.5235 135.911C89.3926 135.85 89.2481 135.819 89.1019 135.82C88.86 135.82 88.628 135.909 88.457 136.069C88.286 136.229 88.1899 136.445 88.1899 136.671C88.1899 136.896 88.286 137.113 88.457 137.272C88.628 137.432 88.86 137.521 89.1019 137.521C89.248 137.521 89.392 137.49 89.5228 137.429C89.6536 137.369 89.7675 137.28 89.8557 137.172L90.431 137.654C90.2638 137.84 90.0529 137.988 89.8146 138.085C89.5763 138.183 89.3172 138.227 89.0573 138.216C88.831 138.23 88.6041 138.2 88.3908 138.128C88.1775 138.056 87.9823 137.944 87.8174 137.799C87.6525 137.654 87.5214 137.479 87.4324 137.284C87.3434 137.09 87.2984 136.88 87.3001 136.669Z" fill="#263238"/>
<path d="M90.7655 136.831V135.167H91.6575V136.793C91.6575 137.305 91.885 137.509 92.2641 137.509C92.6432 137.509 92.8662 137.305 92.8662 136.793V135.2H93.7582V136.864C93.7372 137.222 93.57 137.559 93.2908 137.806C93.0117 138.052 92.6418 138.19 92.2574 138.19C91.8729 138.19 91.5031 138.052 91.2239 137.806C90.9448 137.559 90.7775 137.222 90.7566 136.864L90.7655 136.831Z" fill="#263238"/>
<path d="M95.774 137.367H95.279V138.158H94.387V135.2H95.8454C96.7374 135.2 97.2637 135.616 97.2637 136.302C97.2723 136.499 97.2174 136.694 97.1061 136.862C96.9948 137.029 96.8322 137.162 96.6393 137.243L97.3261 138.179H96.336L95.774 137.367ZM95.774 135.845H95.27V136.714H95.774C96.1442 136.714 96.3315 136.556 96.3315 136.298C96.3315 136.04 96.1531 135.845 95.7829 135.845H95.774Z" fill="#263238"/>
<path d="M99.1458 137.367H98.6508V138.158H97.7588V135.2H99.2172C100.109 135.2 100.635 135.616 100.635 136.302C100.644 136.499 100.589 136.694 100.478 136.862C100.367 137.029 100.204 137.162 100.011 137.243L100.698 138.179H99.7257L99.1458 137.367ZM99.1458 135.845H98.6419V136.714H99.1458C99.5205 136.714 99.7078 136.556 99.7078 136.298C99.7078 136.04 99.5294 135.845 99.1548 135.845H99.1458Z" fill="#263238"/>
<path d="M103.686 137.509V138.158H101.122V135.2H103.628V135.853H102.018V136.352H103.436V136.985H102.018V137.53L103.686 137.509Z" fill="#263238"/>
<path d="M107.223 135.2V138.179H106.478L105.073 136.594V138.179H104.181V135.2H104.926L106.335 136.789V135.2H107.223Z" fill="#263238"/>
<path d="M108.539 135.849H107.562V135.2H110.421V135.87H109.444V138.179H108.552L108.539 135.849Z" fill="#263238"/>
<path d="M112.08 135.2H112.972V137.513H114.493V138.179H112.08V135.2Z" fill="#263238"/>
<path d="M114.649 136.668C114.624 136.335 114.707 136.003 114.887 135.714C115.067 135.426 115.336 135.195 115.659 135.051C115.982 134.907 116.344 134.857 116.698 134.907C117.052 134.958 117.381 135.106 117.643 135.333C117.906 135.561 118.088 135.857 118.168 136.182C118.247 136.508 118.22 136.848 118.09 137.159C117.959 137.47 117.731 137.737 117.436 137.925C117.14 138.114 116.791 138.215 116.433 138.216C116.205 138.231 115.976 138.202 115.761 138.131C115.546 138.06 115.348 137.948 115.181 137.803C115.014 137.658 114.88 137.483 114.789 137.287C114.697 137.092 114.65 136.882 114.649 136.668ZM117.285 136.668C117.275 136.511 117.216 136.36 117.116 136.233C117.015 136.107 116.877 136.01 116.718 135.956C116.559 135.902 116.387 135.893 116.223 135.929C116.058 135.965 115.909 136.045 115.792 136.16C115.676 136.274 115.599 136.418 115.569 136.573C115.539 136.728 115.559 136.888 115.626 137.033C115.693 137.178 115.803 137.301 115.944 137.388C116.085 137.475 116.251 137.521 116.42 137.521C116.539 137.524 116.658 137.504 116.768 137.462C116.879 137.42 116.979 137.357 117.061 137.276C117.144 137.196 117.208 137.1 117.249 136.996C117.289 136.891 117.306 136.78 117.298 136.668H117.285Z" fill="#263238"/>
<path d="M118.507 136.669C118.504 136.457 118.549 136.248 118.637 136.053C118.726 135.859 118.856 135.683 119.021 135.538C119.186 135.393 119.38 135.281 119.594 135.209C119.807 135.137 120.033 135.107 120.259 135.121C120.519 135.11 120.778 135.154 121.017 135.252C121.255 135.349 121.466 135.497 121.633 135.683L121.058 136.169C120.97 136.06 120.857 135.971 120.726 135.911C120.595 135.85 120.45 135.819 120.304 135.82C120.062 135.82 119.83 135.909 119.659 136.069C119.488 136.229 119.392 136.445 119.392 136.671C119.392 136.896 119.488 137.113 119.659 137.272C119.83 137.432 120.062 137.521 120.304 137.521C120.45 137.521 120.594 137.49 120.725 137.429C120.856 137.369 120.97 137.28 121.058 137.172L121.633 137.654C121.466 137.84 121.255 137.988 121.017 138.085C120.778 138.183 120.519 138.227 120.259 138.216C120.033 138.23 119.807 138.2 119.594 138.128C119.38 138.056 119.186 137.944 119.021 137.799C118.856 137.654 118.726 137.478 118.637 137.284C118.549 137.089 118.504 136.88 118.507 136.669Z" fill="#263238"/>
<path d="M124.117 137.58H122.779L122.53 138.158H121.606L123.016 135.179H123.908L125.322 138.158H124.381L124.117 137.58ZM123.85 136.96L123.444 136.007L123.034 136.96H123.85Z" fill="#263238"/>
<path d="M126.08 135.849H125.099V135.2H127.957V135.87H126.985V138.179H126.093L126.08 135.849Z" fill="#263238"/>
<path d="M128.296 135.2H129.188V138.179H128.296V135.2Z" fill="#263238"/>
<path d="M129.679 136.668C129.654 136.335 129.737 136.003 129.917 135.714C130.097 135.426 130.366 135.195 130.689 135.051C131.012 134.907 131.374 134.857 131.728 134.907C132.082 134.958 132.411 135.106 132.673 135.333C132.936 135.561 133.118 135.857 133.198 136.182C133.277 136.508 133.25 136.848 133.12 137.159C132.989 137.47 132.761 137.737 132.466 137.925C132.17 138.114 131.821 138.215 131.463 138.216C131.235 138.231 131.006 138.202 130.791 138.131C130.576 138.06 130.378 137.948 130.211 137.803C130.044 137.658 129.91 137.483 129.819 137.287C129.727 137.092 129.68 136.882 129.679 136.668ZM132.315 136.668C132.305 136.511 132.246 136.36 132.146 136.233C132.045 136.107 131.907 136.01 131.748 135.956C131.589 135.902 131.417 135.893 131.253 135.929C131.088 135.965 130.939 136.045 130.822 136.16C130.706 136.274 130.629 136.418 130.599 136.573C130.569 136.728 130.589 136.888 130.656 137.033C130.723 137.178 130.833 137.301 130.974 137.388C131.115 137.475 131.281 137.521 131.45 137.521C131.568 137.523 131.685 137.501 131.794 137.458C131.903 137.415 132.001 137.352 132.082 137.272C132.164 137.191 132.226 137.097 132.266 136.993C132.306 136.889 132.323 136.779 132.315 136.668Z" fill="#263238"/>
<path d="M136.735 135.2V138.179H135.99L134.58 136.594V138.179H133.688V135.2H134.433L135.843 136.789V135.2H136.735Z" fill="#263238"/>
<path d="M94.271 141.636C94.2901 141.33 94.4052 141.037 94.6018 140.793C94.7985 140.548 95.0681 140.363 95.3769 140.26C95.6857 140.158 96.02 140.143 96.3381 140.216C96.6562 140.29 96.944 140.449 97.1655 140.675L96.7195 141.061C96.6267 140.957 96.5101 140.873 96.3782 140.815C96.2464 140.758 96.1025 140.728 95.9569 140.729C95.699 140.729 95.4517 140.824 95.2694 140.994C95.087 141.164 94.9846 141.395 94.9846 141.636C94.9846 141.876 95.087 142.107 95.2694 142.277C95.4517 142.447 95.699 142.542 95.9569 142.542C96.1031 142.544 96.2477 142.514 96.3799 142.456C96.512 142.398 96.6282 142.312 96.7195 142.205L97.1655 142.592C96.9452 142.819 96.6577 142.981 96.3393 143.056C96.021 143.131 95.6859 143.116 95.3764 143.014C95.0669 142.911 94.7968 142.726 94.6001 142.481C94.4034 142.235 94.2889 141.941 94.271 141.636Z" fill="#E0E0E0"/>
<path d="M97.634 140.221H98.3387V143.05H97.634V140.221Z" fill="#E0E0E0"/>
<path d="M99.6857 140.754H98.7134V140.221H101.358V140.754H100.386V143.05H99.6857V140.754Z" fill="#E0E0E0"/>
<path d="M103.133 142.047V143.05H102.433V142.039L101.242 140.221H101.987L102.794 141.469L103.606 140.221H104.297L103.133 142.047Z" fill="#E0E0E0"/>
<path d="M105.073 142.688C105.069 142.834 105.027 142.976 104.953 143.104L104.708 143.686H104.262L104.449 143.042C104.377 143.015 104.315 142.967 104.274 142.906C104.232 142.845 104.212 142.773 104.217 142.7C104.217 142.597 104.261 142.497 104.34 142.424C104.418 142.351 104.525 142.309 104.636 142.309C104.747 142.309 104.854 142.351 104.933 142.424C105.011 142.497 105.055 142.597 105.055 142.7L105.073 142.688Z" fill="#E0E0E0"/>
<path d="M106.594 141.636C106.614 141.33 106.73 141.038 106.927 140.793C107.125 140.549 107.394 140.364 107.703 140.262C108.012 140.16 108.346 140.144 108.665 140.217C108.983 140.291 109.271 140.45 109.493 140.675L109.047 141.061C108.954 140.957 108.838 140.872 108.706 140.815C108.574 140.757 108.43 140.728 108.284 140.729C108.026 140.729 107.779 140.824 107.597 140.994C107.414 141.164 107.312 141.395 107.312 141.636C107.312 141.876 107.414 142.107 107.597 142.277C107.779 142.447 108.026 142.542 108.284 142.542C108.431 142.545 108.576 142.515 108.708 142.457C108.84 142.398 108.956 142.312 109.047 142.205L109.493 142.592C109.272 142.819 108.984 142.98 108.666 143.054C108.347 143.129 108.012 143.114 107.703 143.012C107.393 142.91 107.123 142.725 106.926 142.48C106.728 142.235 106.613 141.941 106.594 141.636Z" fill="#E0E0E0"/>
<path d="M109.716 141.635C109.697 141.325 109.779 141.017 109.95 140.75C110.121 140.484 110.374 140.272 110.676 140.141C110.979 140.01 111.316 139.967 111.645 140.017C111.973 140.067 112.278 140.208 112.52 140.421C112.762 140.635 112.93 140.911 113.002 141.214C113.073 141.518 113.046 141.834 112.922 142.123C112.799 142.411 112.585 142.659 112.31 142.833C112.034 143.007 111.708 143.1 111.375 143.1C111.162 143.111 110.948 143.082 110.747 143.013C110.546 142.945 110.362 142.839 110.207 142.701C110.052 142.564 109.928 142.399 109.843 142.216C109.759 142.032 109.716 141.835 109.716 141.635ZM112.325 141.635C112.321 141.461 112.261 141.292 112.154 141.149C112.047 141.006 111.897 140.896 111.723 140.832C111.55 140.768 111.359 140.753 111.177 140.79C110.994 140.826 110.827 140.912 110.696 141.037C110.565 141.162 110.477 141.32 110.442 141.491C110.407 141.662 110.427 141.839 110.5 142C110.572 142.161 110.694 142.298 110.85 142.394C111.005 142.491 111.188 142.542 111.375 142.542C111.503 142.547 111.631 142.526 111.75 142.482C111.87 142.437 111.978 142.37 112.068 142.285C112.158 142.2 112.228 142.098 112.274 141.986C112.32 141.875 112.34 141.755 112.334 141.635H112.325Z" fill="#E0E0E0"/>
<path d="M113.547 141.806V140.221H114.247V141.781C114.247 142.318 114.497 142.542 114.925 142.542C115.353 142.542 115.599 142.318 115.599 141.781V140.221H116.294V141.806C116.294 142.146 116.15 142.472 115.892 142.712C115.635 142.952 115.285 143.087 114.921 143.087C114.556 143.087 114.207 142.952 113.949 142.712C113.692 142.472 113.547 142.146 113.547 141.806Z" fill="#E0E0E0"/>
<path d="M119.769 140.221V143.05H119.194L117.682 141.332V143.05H116.986V140.221H117.566L119.082 141.939V140.221H119.769Z" fill="#E0E0E0"/>
<path d="M121.116 140.754H120.144V140.221H122.788V140.754H121.816V143.05H121.116V140.754Z" fill="#E0E0E0"/>
<path d="M125.099 143.05L124.514 142.272H123.868V143.058H123.163V140.229H124.501C125.308 140.229 125.817 140.62 125.817 141.257C125.825 141.448 125.77 141.637 125.658 141.797C125.546 141.958 125.383 142.081 125.192 142.151L125.875 143.058L125.099 143.05ZM124.434 140.754H123.863V141.74H124.434C124.88 141.74 125.081 141.556 125.081 141.249C125.081 140.941 124.88 140.754 124.434 140.754Z" fill="#E0E0E0"/>
<path d="M127.761 142.047V143.05H127.061V142.039L125.884 140.221H126.628L127.44 141.469L128.252 140.221H128.943L127.761 142.047Z" fill="#E0E0E0"/>
</svg>
