<svg width="21" height="23" viewBox="0 0 21 23" fill="none" xmlns="http://www.w3.org/2000/svg">
<g filter="url(#filter0_d_669_864)">
<path d="M7.375 11.25C6.23192 11.5073 5.5 11.9027 5.5 12.3461C5.5 13.1214 7.73857 13.75 10.5 13.75C13.2614 13.75 15.5 13.1214 15.5 12.3461C15.5 11.9027 14.7681 11.5073 13.625 11.25" stroke="black" stroke-width="1.5" stroke-linecap="round"/>
<path d="M12.0625 5.625C12.0625 6.48794 11.3629 7.1875 10.5 7.1875C9.63706 7.1875 8.9375 6.48794 8.9375 5.625C8.9375 4.76206 9.63706 4.0625 10.5 4.0625C11.3629 4.0625 12.0625 4.76206 12.0625 5.625Z" stroke="black" stroke-width="1.5"/>
<path d="M11.2859 10.9335C11.0751 11.1365 10.7933 11.25 10.5001 11.25C10.2069 11.25 9.92512 11.1365 9.71431 10.9335C7.78394 9.063 5.19699 6.97344 6.45857 3.93983C7.14069 2.29958 8.77809 1.25 10.5001 1.25C12.2221 1.25 13.8595 2.29958 14.5416 3.93983C15.8016 6.96963 13.221 9.06944 11.2859 10.9335Z" stroke="black" stroke-width="1.5"/>
</g>
<defs>
<filter id="filter0_d_669_864" x="-1" y="0" width="23" height="23" filterUnits="userSpaceOnUse" color-interpolation-filters="sRGB">
<feFlood flood-opacity="0" result="BackgroundImageFix"/>
<feColorMatrix in="SourceAlpha" type="matrix" values="0 0 0 0 0 0 0 0 0 0 0 0 0 0 0 0 0 0 127 0" result="hardAlpha"/>
<feOffset dy="4"/>
<feGaussianBlur stdDeviation="2"/>
<feComposite in2="hardAlpha" operator="out"/>
<feColorMatrix type="matrix" values="0 0 0 0 0 0 0 0 0 0 0 0 0 0 0 0 0 0 0.25 0"/>
<feBlend mode="normal" in2="BackgroundImageFix" result="effect1_dropShadow_669_864"/>
<feBlend mode="normal" in="SourceGraphic" in2="effect1_dropShadow_669_864" result="shape"/>
</filter>
</defs>
</svg>
