<svg width="15" height="15" viewBox="0 0 15 15" fill="none" xmlns="http://www.w3.org/2000/svg">
<path d="M3.125 5.625C3.125 3.56261 3.125 2.53141 3.76571 1.89071C4.40641 1.25 5.43761 1.25 7.5 1.25C9.56237 1.25 10.5936 1.25 11.2343 1.89071C11.875 2.53141 11.875 3.56261 11.875 5.625V9.375C11.875 11.4374 11.875 12.4686 11.2343 13.1093C10.5936 13.75 9.56237 13.75 7.5 13.75C5.43761 13.75 4.40641 13.75 3.76571 13.1093C3.125 12.4686 3.125 11.4374 3.125 9.375V5.625Z" stroke="black" stroke-width="1.5" stroke-linecap="round"/>
<path d="M6.875 11.875H8.125" stroke="black" stroke-width="1.5" stroke-linecap="round" stroke-linejoin="round"/>
<path d="M5.625 1.25L5.68062 1.58376C5.80117 2.30706 5.86145 2.66871 6.10949 2.88877C6.36825 3.11834 6.73506 3.125 7.5 3.125C8.26494 3.125 8.63175 3.11834 8.8905 2.88877C9.13856 2.66871 9.19881 2.30706 9.31938 1.58376L9.375 1.25" stroke="black" stroke-width="1.5" stroke-linejoin="round"/>
</svg>
